<mxfile host="app.diagrams.net" agent="Mozilla/5.0 (Windows NT 10.0; Win64; x64) AppleWebKit/537.36 (KHTML, like Gecko) Chrome/136.0.0.0 Safari/537.36" version="27.0.1">
  <diagram name="Page-1" id="Yv0Tl1XHFK00WdUaMiFT">
    <mxGraphModel dx="4570" dy="929" grid="1" gridSize="10" guides="1" tooltips="1" connect="1" arrows="1" fold="1" page="1" pageScale="1" pageWidth="850" pageHeight="1100" math="0" shadow="0">
      <root>
        <mxCell id="0" />
        <mxCell id="1" parent="0" />
        <mxCell id="m5Xinrenpy1b4HEcEIEp-1" value="Admin" style="shape=umlActor;verticalLabelPosition=bottom;verticalAlign=top;html=1;outlineConnect=0;" parent="1" vertex="1">
          <mxGeometry x="110" y="380" width="30" height="60" as="geometry" />
        </mxCell>
        <mxCell id="m5Xinrenpy1b4HEcEIEp-2" value="Login" style="ellipse;whiteSpace=wrap;html=1;" parent="1" vertex="1">
          <mxGeometry x="220" y="380" width="100" height="55" as="geometry" />
        </mxCell>
        <mxCell id="m5Xinrenpy1b4HEcEIEp-4" value="" style="endArrow=classic;html=1;rounded=0;entryX=0;entryY=0.5;entryDx=0;entryDy=0;" parent="1" source="m5Xinrenpy1b4HEcEIEp-1" target="m5Xinrenpy1b4HEcEIEp-2" edge="1">
          <mxGeometry width="50" height="50" relative="1" as="geometry">
            <mxPoint x="380" y="580" as="sourcePoint" />
            <mxPoint x="430" y="530" as="targetPoint" />
          </mxGeometry>
        </mxCell>
        <mxCell id="m5Xinrenpy1b4HEcEIEp-5" value="Lihat Dashboard" style="ellipse;whiteSpace=wrap;html=1;" parent="1" vertex="1">
          <mxGeometry x="240" y="270" width="100" height="50" as="geometry" />
        </mxCell>
        <mxCell id="m5Xinrenpy1b4HEcEIEp-6" value="Ambil Data Pegawai dan Absensi" style="ellipse;whiteSpace=wrap;html=1;" parent="1" vertex="1">
          <mxGeometry x="240" y="160" width="120" height="60" as="geometry" />
        </mxCell>
        <mxCell id="m5Xinrenpy1b4HEcEIEp-7" value="Kelola Absensi" style="ellipse;whiteSpace=wrap;html=1;" parent="1" vertex="1">
          <mxGeometry x="380" y="350" width="100" height="50" as="geometry" />
        </mxCell>
        <mxCell id="m5Xinrenpy1b4HEcEIEp-8" value="&lt;table&gt;&lt;tbody&gt;&lt;tr&gt;&lt;td data-col-size=&quot;sm&quot; data-end=&quot;1503&quot; data-start=&quot;1487&quot;&gt;&lt;/td&gt;&lt;/tr&gt;&lt;/tbody&gt;&lt;/table&gt;&lt;table&gt;&lt;tbody&gt;&lt;tr&gt;&lt;td data-col-size=&quot;sm&quot; data-end=&quot;1542&quot; data-start=&quot;1503&quot;&gt;Tambah/Edit/Hapus/Cari Absensi&lt;/td&gt;&lt;/tr&gt;&lt;/tbody&gt;&lt;/table&gt;" style="ellipse;whiteSpace=wrap;html=1;" parent="1" vertex="1">
          <mxGeometry x="360" y="240" width="160" height="60" as="geometry" />
        </mxCell>
        <mxCell id="m5Xinrenpy1b4HEcEIEp-9" value="Pulihkan Data Absensi" style="ellipse;whiteSpace=wrap;html=1;" parent="1" vertex="1">
          <mxGeometry x="550" y="300" width="100" height="50" as="geometry" />
        </mxCell>
        <mxCell id="m5Xinrenpy1b4HEcEIEp-10" value="Kelola Data Pegawai" style="ellipse;whiteSpace=wrap;html=1;" parent="1" vertex="1">
          <mxGeometry x="250" y="485" width="100" height="50" as="geometry" />
        </mxCell>
        <mxCell id="m5Xinrenpy1b4HEcEIEp-11" value="Pulihkan Data Pegawai" style="ellipse;whiteSpace=wrap;html=1;" parent="1" vertex="1">
          <mxGeometry x="420" y="420" width="100" height="50" as="geometry" />
        </mxCell>
        <mxCell id="m5Xinrenpy1b4HEcEIEp-12" value="&lt;table&gt;&lt;tbody&gt;&lt;tr&gt;&lt;td data-col-size=&quot;sm&quot; data-end=&quot;1503&quot; data-start=&quot;1487&quot;&gt;&lt;/td&gt;&lt;/tr&gt;&lt;/tbody&gt;&lt;/table&gt;&lt;table&gt;&lt;tbody&gt;&lt;tr&gt;&lt;td data-col-size=&quot;sm&quot; data-end=&quot;1542&quot; data-start=&quot;1503&quot;&gt;Tambah/Edit/Hapus/Cari Pegawai&lt;/td&gt;&lt;/tr&gt;&lt;/tbody&gt;&lt;/table&gt;" style="ellipse;whiteSpace=wrap;html=1;" parent="1" vertex="1">
          <mxGeometry x="360" y="540" width="160" height="60" as="geometry" />
        </mxCell>
        <mxCell id="m5Xinrenpy1b4HEcEIEp-13" value="" style="endArrow=classic;html=1;rounded=0;exitX=0.448;exitY=0.97;exitDx=0;exitDy=0;exitPerimeter=0;entryX=0.5;entryY=0;entryDx=0;entryDy=0;" parent="1" source="m5Xinrenpy1b4HEcEIEp-5" target="m5Xinrenpy1b4HEcEIEp-2" edge="1">
          <mxGeometry width="50" height="50" relative="1" as="geometry">
            <mxPoint x="220" y="390" as="sourcePoint" />
            <mxPoint x="270" y="340" as="targetPoint" />
          </mxGeometry>
        </mxCell>
        <mxCell id="m5Xinrenpy1b4HEcEIEp-14" value="&amp;lt;&amp;lt;extend&amp;gt;&amp;gt;" style="edgeLabel;html=1;align=center;verticalAlign=middle;resizable=0;points=[];" parent="m5Xinrenpy1b4HEcEIEp-13" vertex="1" connectable="0">
          <mxGeometry x="0.0083" y="-1" relative="1" as="geometry">
            <mxPoint as="offset" />
          </mxGeometry>
        </mxCell>
        <mxCell id="m5Xinrenpy1b4HEcEIEp-15" value="" style="endArrow=classic;html=1;rounded=0;exitX=0;exitY=0.5;exitDx=0;exitDy=0;entryX=1;entryY=0.5;entryDx=0;entryDy=0;" parent="1" source="m5Xinrenpy1b4HEcEIEp-7" target="m5Xinrenpy1b4HEcEIEp-2" edge="1">
          <mxGeometry width="50" height="50" relative="1" as="geometry">
            <mxPoint x="370" y="379.5" as="sourcePoint" />
            <mxPoint x="310" y="440.5" as="targetPoint" />
          </mxGeometry>
        </mxCell>
        <mxCell id="m5Xinrenpy1b4HEcEIEp-16" value="&amp;lt;&amp;lt;extend&amp;gt;&amp;gt;" style="edgeLabel;html=1;align=center;verticalAlign=middle;resizable=0;points=[];" parent="m5Xinrenpy1b4HEcEIEp-15" vertex="1" connectable="0">
          <mxGeometry x="0.0083" y="-1" relative="1" as="geometry">
            <mxPoint as="offset" />
          </mxGeometry>
        </mxCell>
        <mxCell id="m5Xinrenpy1b4HEcEIEp-17" value="" style="endArrow=classic;html=1;rounded=0;exitX=0.5;exitY=0;exitDx=0;exitDy=0;entryX=0.709;entryY=0.956;entryDx=0;entryDy=0;entryPerimeter=0;" parent="1" source="m5Xinrenpy1b4HEcEIEp-10" target="m5Xinrenpy1b4HEcEIEp-2" edge="1">
          <mxGeometry width="50" height="50" relative="1" as="geometry">
            <mxPoint x="420" y="405" as="sourcePoint" />
            <mxPoint x="330" y="418" as="targetPoint" />
          </mxGeometry>
        </mxCell>
        <mxCell id="m5Xinrenpy1b4HEcEIEp-18" value="&amp;lt;&amp;lt;extend&amp;gt;&amp;gt;" style="edgeLabel;html=1;align=center;verticalAlign=middle;resizable=0;points=[];" parent="m5Xinrenpy1b4HEcEIEp-17" vertex="1" connectable="0">
          <mxGeometry x="0.0083" y="-1" relative="1" as="geometry">
            <mxPoint as="offset" />
          </mxGeometry>
        </mxCell>
        <mxCell id="m5Xinrenpy1b4HEcEIEp-19" value="" style="endArrow=classic;html=1;rounded=0;exitX=0.5;exitY=1;exitDx=0;exitDy=0;entryX=0.6;entryY=0;entryDx=0;entryDy=0;entryPerimeter=0;" parent="1" source="m5Xinrenpy1b4HEcEIEp-6" target="m5Xinrenpy1b4HEcEIEp-5" edge="1">
          <mxGeometry width="50" height="50" relative="1" as="geometry">
            <mxPoint x="349" y="200" as="sourcePoint" />
            <mxPoint x="290" y="261" as="targetPoint" />
          </mxGeometry>
        </mxCell>
        <mxCell id="m5Xinrenpy1b4HEcEIEp-20" value="&amp;lt;&amp;lt;include&amp;gt;&amp;gt;" style="edgeLabel;html=1;align=center;verticalAlign=middle;resizable=0;points=[];" parent="m5Xinrenpy1b4HEcEIEp-19" vertex="1" connectable="0">
          <mxGeometry x="0.0083" y="-1" relative="1" as="geometry">
            <mxPoint as="offset" />
          </mxGeometry>
        </mxCell>
        <mxCell id="m5Xinrenpy1b4HEcEIEp-22" value="" style="endArrow=classic;html=1;rounded=0;entryX=0.6;entryY=0;entryDx=0;entryDy=0;entryPerimeter=0;" parent="1" source="m5Xinrenpy1b4HEcEIEp-8" target="m5Xinrenpy1b4HEcEIEp-7" edge="1">
          <mxGeometry width="50" height="50" relative="1" as="geometry">
            <mxPoint x="427" y="241" as="sourcePoint" />
            <mxPoint x="370" y="280" as="targetPoint" />
          </mxGeometry>
        </mxCell>
        <mxCell id="m5Xinrenpy1b4HEcEIEp-23" value="&amp;lt;&amp;lt;include&amp;gt;&amp;gt;" style="edgeLabel;html=1;align=center;verticalAlign=middle;resizable=0;points=[];" parent="m5Xinrenpy1b4HEcEIEp-22" vertex="1" connectable="0">
          <mxGeometry x="0.0083" y="-1" relative="1" as="geometry">
            <mxPoint as="offset" />
          </mxGeometry>
        </mxCell>
        <mxCell id="m5Xinrenpy1b4HEcEIEp-24" value="" style="endArrow=classic;html=1;rounded=0;exitX=0.326;exitY=-0.02;exitDx=0;exitDy=0;exitPerimeter=0;" parent="1" source="m5Xinrenpy1b4HEcEIEp-12" target="m5Xinrenpy1b4HEcEIEp-10" edge="1">
          <mxGeometry width="50" height="50" relative="1" as="geometry">
            <mxPoint x="528" y="319" as="sourcePoint" />
            <mxPoint x="480" y="380" as="targetPoint" />
          </mxGeometry>
        </mxCell>
        <mxCell id="m5Xinrenpy1b4HEcEIEp-25" value="&amp;lt;&amp;lt;include&amp;gt;&amp;gt;" style="edgeLabel;html=1;align=center;verticalAlign=middle;resizable=0;points=[];" parent="m5Xinrenpy1b4HEcEIEp-24" vertex="1" connectable="0">
          <mxGeometry x="0.0083" y="-1" relative="1" as="geometry">
            <mxPoint as="offset" />
          </mxGeometry>
        </mxCell>
        <mxCell id="m5Xinrenpy1b4HEcEIEp-26" value="" style="endArrow=classic;html=1;rounded=0;exitX=0;exitY=0.5;exitDx=0;exitDy=0;entryX=1;entryY=0.5;entryDx=0;entryDy=0;" parent="1" source="m5Xinrenpy1b4HEcEIEp-11" target="m5Xinrenpy1b4HEcEIEp-10" edge="1">
          <mxGeometry width="50" height="50" relative="1" as="geometry">
            <mxPoint x="338" y="491" as="sourcePoint" />
            <mxPoint x="301" y="443" as="targetPoint" />
          </mxGeometry>
        </mxCell>
        <mxCell id="m5Xinrenpy1b4HEcEIEp-27" value="&amp;lt;&amp;lt;extend&amp;gt;&amp;gt;" style="edgeLabel;html=1;align=center;verticalAlign=middle;resizable=0;points=[];" parent="m5Xinrenpy1b4HEcEIEp-26" vertex="1" connectable="0">
          <mxGeometry x="0.0083" y="-1" relative="1" as="geometry">
            <mxPoint as="offset" />
          </mxGeometry>
        </mxCell>
        <mxCell id="m5Xinrenpy1b4HEcEIEp-28" value="" style="endArrow=classic;html=1;rounded=0;exitX=0;exitY=0.5;exitDx=0;exitDy=0;" parent="1" source="m5Xinrenpy1b4HEcEIEp-9" target="m5Xinrenpy1b4HEcEIEp-7" edge="1">
          <mxGeometry width="50" height="50" relative="1" as="geometry">
            <mxPoint x="338" y="491" as="sourcePoint" />
            <mxPoint x="301" y="443" as="targetPoint" />
          </mxGeometry>
        </mxCell>
        <mxCell id="m5Xinrenpy1b4HEcEIEp-29" value="&amp;lt;&amp;lt;extend&amp;gt;&amp;gt;" style="edgeLabel;html=1;align=center;verticalAlign=middle;resizable=0;points=[];" parent="m5Xinrenpy1b4HEcEIEp-28" vertex="1" connectable="0">
          <mxGeometry x="0.0083" y="-1" relative="1" as="geometry">
            <mxPoint as="offset" />
          </mxGeometry>
        </mxCell>
        <mxCell id="m5Xinrenpy1b4HEcEIEp-30" value="List" style="swimlane;fontStyle=0;childLayout=stackLayout;horizontal=1;startSize=30;horizontalStack=0;resizeParent=1;resizeParentMax=0;resizeLast=0;collapsible=1;marginBottom=0;whiteSpace=wrap;html=1;" parent="1" vertex="1">
          <mxGeometry x="440" y="780" width="140" height="120" as="geometry" />
        </mxCell>
        <mxCell id="m5Xinrenpy1b4HEcEIEp-31" value="Item 1" style="text;strokeColor=none;fillColor=none;align=left;verticalAlign=middle;spacingLeft=4;spacingRight=4;overflow=hidden;points=[[0,0.5],[1,0.5]];portConstraint=eastwest;rotatable=0;whiteSpace=wrap;html=1;" parent="m5Xinrenpy1b4HEcEIEp-30" vertex="1">
          <mxGeometry y="30" width="140" height="30" as="geometry" />
        </mxCell>
        <mxCell id="m5Xinrenpy1b4HEcEIEp-32" value="Item 2" style="text;strokeColor=none;fillColor=none;align=left;verticalAlign=middle;spacingLeft=4;spacingRight=4;overflow=hidden;points=[[0,0.5],[1,0.5]];portConstraint=eastwest;rotatable=0;whiteSpace=wrap;html=1;" parent="m5Xinrenpy1b4HEcEIEp-30" vertex="1">
          <mxGeometry y="60" width="140" height="30" as="geometry" />
        </mxCell>
        <mxCell id="m5Xinrenpy1b4HEcEIEp-33" value="Item 3" style="text;strokeColor=none;fillColor=none;align=left;verticalAlign=middle;spacingLeft=4;spacingRight=4;overflow=hidden;points=[[0,0.5],[1,0.5]];portConstraint=eastwest;rotatable=0;whiteSpace=wrap;html=1;" parent="m5Xinrenpy1b4HEcEIEp-30" vertex="1">
          <mxGeometry y="90" width="140" height="30" as="geometry" />
        </mxCell>
        <mxCell id="m5Xinrenpy1b4HEcEIEp-35" value="User" style="swimlane;fontStyle=0;childLayout=stackLayout;horizontal=1;startSize=30;horizontalStack=0;resizeParent=1;resizeParentMax=0;resizeLast=0;collapsible=1;marginBottom=0;whiteSpace=wrap;html=1;" parent="1" vertex="1">
          <mxGeometry x="190" y="780" width="140" height="120" as="geometry" />
        </mxCell>
        <mxCell id="m5Xinrenpy1b4HEcEIEp-36" value="email: String" style="text;strokeColor=none;fillColor=none;align=left;verticalAlign=middle;spacingLeft=4;spacingRight=4;overflow=hidden;points=[[0,0.5],[1,0.5]];portConstraint=eastwest;rotatable=0;whiteSpace=wrap;html=1;" parent="m5Xinrenpy1b4HEcEIEp-35" vertex="1">
          <mxGeometry y="30" width="140" height="30" as="geometry" />
        </mxCell>
        <mxCell id="m5Xinrenpy1b4HEcEIEp-37" value="password: String" style="text;strokeColor=none;fillColor=none;align=left;verticalAlign=middle;spacingLeft=4;spacingRight=4;overflow=hidden;points=[[0,0.5],[1,0.5]];portConstraint=eastwest;rotatable=0;whiteSpace=wrap;html=1;" parent="m5Xinrenpy1b4HEcEIEp-35" vertex="1">
          <mxGeometry y="60" width="140" height="30" as="geometry" />
        </mxCell>
        <mxCell id="m5Xinrenpy1b4HEcEIEp-38" value="Item 3" style="text;strokeColor=none;fillColor=none;align=left;verticalAlign=middle;spacingLeft=4;spacingRight=4;overflow=hidden;points=[[0,0.5],[1,0.5]];portConstraint=eastwest;rotatable=0;whiteSpace=wrap;html=1;" parent="m5Xinrenpy1b4HEcEIEp-35" vertex="1">
          <mxGeometry y="90" width="140" height="30" as="geometry" />
        </mxCell>
        <mxCell id="0dSPZriXZC8QqvjGXmse-3" value="" style="verticalLabelPosition=bottom;verticalAlign=top;html=1;shape=mxgraph.basic.rect;fillColor2=none;strokeWidth=1;size=20;indent=5;movable=1;resizable=1;rotatable=1;deletable=1;editable=1;locked=0;connectable=1;" parent="1" vertex="1">
          <mxGeometry x="1340" y="152" width="140" height="498" as="geometry" />
        </mxCell>
        <mxCell id="0dSPZriXZC8QqvjGXmse-5" value="" style="verticalLabelPosition=bottom;verticalAlign=top;html=1;shape=mxgraph.basic.rect;fillColor2=none;strokeWidth=1;size=20;indent=5;movable=1;resizable=1;rotatable=1;deletable=1;editable=1;locked=0;connectable=1;" parent="1" vertex="1">
          <mxGeometry x="1480" y="152" width="290" height="498" as="geometry" />
        </mxCell>
        <mxCell id="0dSPZriXZC8QqvjGXmse-6" value="&lt;font style=&quot;font-size: 12px;&quot;&gt;Pegawai&lt;/font&gt;" style="text;strokeColor=none;fillColor=none;html=1;fontSize=24;fontStyle=1;verticalAlign=middle;align=center;" parent="1" vertex="1">
          <mxGeometry x="1360" y="146" width="100" height="40" as="geometry" />
        </mxCell>
        <mxCell id="0dSPZriXZC8QqvjGXmse-8" value="&lt;font style=&quot;font-size: 12px;&quot;&gt;Sistem&lt;/font&gt;" style="text;strokeColor=none;fillColor=none;html=1;fontSize=24;fontStyle=1;verticalAlign=middle;align=center;" parent="1" vertex="1">
          <mxGeometry x="1575" y="156" width="100" height="30" as="geometry" />
        </mxCell>
        <mxCell id="0dSPZriXZC8QqvjGXmse-13" value="&lt;p style=&quot;white-space-collapse: preserve;&quot; dir=&quot;auto&quot;&gt;&lt;font style=&quot;font-size: 10px;&quot;&gt;Absensi Datang&lt;/font&gt;&lt;/p&gt;" style="rounded=1;whiteSpace=wrap;html=1;" parent="1" vertex="1">
          <mxGeometry x="1370" y="250" width="80" height="30" as="geometry" />
        </mxCell>
        <mxCell id="0dSPZriXZC8QqvjGXmse-137" style="edgeStyle=none;curved=1;rounded=0;orthogonalLoop=1;jettySize=auto;html=1;exitX=1;exitY=0.5;exitDx=0;exitDy=0;fontSize=12;startSize=8;endSize=8;" parent="1" source="0dSPZriXZC8QqvjGXmse-16" target="0dSPZriXZC8QqvjGXmse-126" edge="1">
          <mxGeometry relative="1" as="geometry" />
        </mxCell>
        <mxCell id="0dSPZriXZC8QqvjGXmse-16" value="&lt;p style=&quot;white-space-collapse: preserve;&quot; dir=&quot;auto&quot;&gt;&lt;font style=&quot;font-size: 10px;&quot;&gt;Mengisi jam dan foto&lt;/font&gt;&lt;/p&gt;" style="rounded=1;whiteSpace=wrap;html=1;" parent="1" vertex="1">
          <mxGeometry x="1370" y="310" width="80" height="30" as="geometry" />
        </mxCell>
        <mxCell id="0dSPZriXZC8QqvjGXmse-19" style="edgeStyle=none;curved=1;rounded=0;orthogonalLoop=1;jettySize=auto;html=1;exitX=0.5;exitY=1;exitDx=0;exitDy=0;entryX=0.5;entryY=0;entryDx=0;entryDy=0;fontSize=12;startSize=8;endSize=8;endArrow=open;endFill=0;strokeColor=light-dark(#404040, #ededed);" parent="1" edge="1">
          <mxGeometry relative="1" as="geometry">
            <mxPoint x="1409.8" y="280" as="sourcePoint" />
            <mxPoint x="1409.8" y="310" as="targetPoint" />
          </mxGeometry>
        </mxCell>
        <mxCell id="0dSPZriXZC8QqvjGXmse-67" value="" style="verticalLabelPosition=bottom;verticalAlign=top;html=1;shape=mxgraph.basic.rect;fillColor2=none;strokeWidth=1;size=20;indent=5;movable=1;resizable=1;rotatable=1;deletable=1;editable=1;locked=0;connectable=1;" parent="1" vertex="1">
          <mxGeometry x="960" y="152" width="140" height="414" as="geometry" />
        </mxCell>
        <mxCell id="0dSPZriXZC8QqvjGXmse-68" value="" style="verticalLabelPosition=bottom;verticalAlign=top;html=1;shape=mxgraph.basic.rect;fillColor2=none;strokeWidth=1;size=20;indent=5;movable=1;resizable=1;rotatable=1;deletable=1;editable=1;locked=0;connectable=1;" parent="1" vertex="1">
          <mxGeometry x="1100" y="152" width="200" height="414" as="geometry" />
        </mxCell>
        <mxCell id="0dSPZriXZC8QqvjGXmse-69" value="&lt;font style=&quot;font-size: 12px;&quot;&gt;User&lt;/font&gt;" style="text;strokeColor=none;fillColor=none;html=1;fontSize=24;fontStyle=1;verticalAlign=middle;align=center;" parent="1" vertex="1">
          <mxGeometry x="980" y="152" width="100" height="40" as="geometry" />
        </mxCell>
        <mxCell id="0dSPZriXZC8QqvjGXmse-70" value="&lt;font style=&quot;font-size: 12px;&quot;&gt;Sistem&lt;/font&gt;" style="text;strokeColor=none;fillColor=none;html=1;fontSize=24;fontStyle=1;verticalAlign=middle;align=center;" parent="1" vertex="1">
          <mxGeometry x="1150" y="152" width="100" height="40" as="geometry" />
        </mxCell>
        <mxCell id="0dSPZriXZC8QqvjGXmse-73" style="edgeStyle=none;curved=1;rounded=0;orthogonalLoop=1;jettySize=auto;html=1;exitX=0.5;exitY=1;exitDx=0;exitDy=0;entryX=0.5;entryY=0;entryDx=0;entryDy=0;fontSize=12;startSize=8;endSize=8;endArrow=open;endFill=0;" parent="1" source="0dSPZriXZC8QqvjGXmse-71" target="0dSPZriXZC8QqvjGXmse-72" edge="1">
          <mxGeometry relative="1" as="geometry" />
        </mxCell>
        <mxCell id="0dSPZriXZC8QqvjGXmse-71" value="" style="ellipse;whiteSpace=wrap;html=1;aspect=fixed;gradientColor=none;fillColor=#000000;fillStyle=solid;gradientDirection=north;" parent="1" vertex="1">
          <mxGeometry x="1020" y="206" width="20" height="20" as="geometry" />
        </mxCell>
        <mxCell id="0dSPZriXZC8QqvjGXmse-78" style="edgeStyle=none;curved=1;rounded=0;orthogonalLoop=1;jettySize=auto;html=1;exitX=1;exitY=0.5;exitDx=0;exitDy=0;entryX=0;entryY=0.5;entryDx=0;entryDy=0;fontSize=12;startSize=8;endSize=8;endArrow=open;endFill=0;" parent="1" source="0dSPZriXZC8QqvjGXmse-72" target="0dSPZriXZC8QqvjGXmse-74" edge="1">
          <mxGeometry relative="1" as="geometry" />
        </mxCell>
        <mxCell id="0dSPZriXZC8QqvjGXmse-72" value="&lt;p style=&quot;white-space-collapse: preserve;&quot; dir=&quot;auto&quot;&gt;&lt;font style=&quot;font-size: 10px;&quot;&gt;Login Ke Sistem&lt;/font&gt;&lt;/p&gt;" style="rounded=1;whiteSpace=wrap;html=1;" parent="1" vertex="1">
          <mxGeometry x="990" y="256" width="80" height="30" as="geometry" />
        </mxCell>
        <mxCell id="0dSPZriXZC8QqvjGXmse-74" value="&lt;p style=&quot;white-space-collapse: preserve;&quot; dir=&quot;auto&quot;&gt;&lt;font style=&quot;font-size: 10px;&quot;&gt;Validasi&lt;/font&gt;&lt;/p&gt;" style="rounded=1;whiteSpace=wrap;html=1;" parent="1" vertex="1">
          <mxGeometry x="1160" y="256" width="80" height="30" as="geometry" />
        </mxCell>
        <mxCell id="0dSPZriXZC8QqvjGXmse-75" value="" style="rhombus;whiteSpace=wrap;html=1;" parent="1" vertex="1">
          <mxGeometry x="1185" y="316" width="30" height="30" as="geometry" />
        </mxCell>
        <mxCell id="0dSPZriXZC8QqvjGXmse-76" style="edgeStyle=none;curved=1;rounded=0;orthogonalLoop=1;jettySize=auto;html=1;exitX=0.5;exitY=1;exitDx=0;exitDy=0;entryX=0.5;entryY=0;entryDx=0;entryDy=0;fontSize=12;startSize=8;endSize=8;endArrow=open;endFill=0;" parent="1" edge="1">
          <mxGeometry relative="1" as="geometry">
            <mxPoint x="1199.66" y="286" as="sourcePoint" />
            <mxPoint x="1199.66" y="316" as="targetPoint" />
          </mxGeometry>
        </mxCell>
        <mxCell id="0dSPZriXZC8QqvjGXmse-81" value="" style="endArrow=none;html=1;rounded=0;fontSize=12;startSize=8;endSize=8;curved=1;entryX=0;entryY=0.5;entryDx=0;entryDy=0;" parent="1" target="0dSPZriXZC8QqvjGXmse-75" edge="1">
          <mxGeometry width="50" height="50" relative="1" as="geometry">
            <mxPoint x="1029.5" y="331" as="sourcePoint" />
            <mxPoint x="1164" y="331" as="targetPoint" />
          </mxGeometry>
        </mxCell>
        <mxCell id="0dSPZriXZC8QqvjGXmse-83" value="&lt;font style=&quot;font-size: 10px;&quot;&gt;NO&lt;/font&gt;" style="edgeLabel;html=1;align=center;verticalAlign=middle;resizable=0;points=[];fontSize=12;" parent="0dSPZriXZC8QqvjGXmse-81" vertex="1" connectable="0">
          <mxGeometry x="-0.0002" y="1" relative="1" as="geometry">
            <mxPoint as="offset" />
          </mxGeometry>
        </mxCell>
        <mxCell id="0dSPZriXZC8QqvjGXmse-82" value="" style="endArrow=open;html=1;rounded=0;fontSize=12;startSize=8;endSize=8;curved=1;endFill=0;" parent="1" edge="1">
          <mxGeometry width="50" height="50" relative="1" as="geometry">
            <mxPoint x="1030" y="331" as="sourcePoint" />
            <mxPoint x="1030" y="286" as="targetPoint" />
          </mxGeometry>
        </mxCell>
        <mxCell id="0dSPZriXZC8QqvjGXmse-84" style="edgeStyle=none;curved=1;rounded=0;orthogonalLoop=1;jettySize=auto;html=1;exitX=0.5;exitY=1;exitDx=0;exitDy=0;entryX=0.5;entryY=0;entryDx=0;entryDy=0;fontSize=12;startSize=8;endSize=8;endArrow=open;endFill=0;" parent="1" edge="1">
          <mxGeometry relative="1" as="geometry">
            <mxPoint x="1199.71" y="346" as="sourcePoint" />
            <mxPoint x="1199.71" y="376" as="targetPoint" />
          </mxGeometry>
        </mxCell>
        <mxCell id="0dSPZriXZC8QqvjGXmse-86" value="yes" style="edgeLabel;html=1;align=center;verticalAlign=middle;resizable=0;points=[];fontSize=12;" parent="0dSPZriXZC8QqvjGXmse-84" vertex="1" connectable="0">
          <mxGeometry x="-0.385" relative="1" as="geometry">
            <mxPoint as="offset" />
          </mxGeometry>
        </mxCell>
        <mxCell id="0dSPZriXZC8QqvjGXmse-88" style="edgeStyle=none;curved=1;rounded=0;orthogonalLoop=1;jettySize=auto;html=1;exitX=0.5;exitY=1;exitDx=0;exitDy=0;entryX=0.5;entryY=0;entryDx=0;entryDy=0;fontSize=12;startSize=8;endSize=8;endArrow=open;endFill=0;" parent="1" source="0dSPZriXZC8QqvjGXmse-85" target="0dSPZriXZC8QqvjGXmse-87" edge="1">
          <mxGeometry relative="1" as="geometry" />
        </mxCell>
        <mxCell id="0dSPZriXZC8QqvjGXmse-85" value="&lt;p style=&quot;white-space-collapse: preserve;&quot; dir=&quot;auto&quot;&gt;&lt;font style=&quot;font-size: 10px;&quot;&gt;Role?&lt;/font&gt;&lt;/p&gt;" style="rounded=1;whiteSpace=wrap;html=1;" parent="1" vertex="1">
          <mxGeometry x="1160" y="376" width="80" height="30" as="geometry" />
        </mxCell>
        <mxCell id="0dSPZriXZC8QqvjGXmse-87" value="" style="rhombus;whiteSpace=wrap;html=1;" parent="1" vertex="1">
          <mxGeometry x="1185" y="436" width="30" height="30" as="geometry" />
        </mxCell>
        <mxCell id="0dSPZriXZC8QqvjGXmse-89" value="&lt;p style=&quot;white-space-collapse: preserve;&quot; dir=&quot;auto&quot;&gt;&lt;font style=&quot;font-size: 10px;&quot;&gt;Admin Disyplay&lt;/font&gt;&lt;/p&gt;" style="rounded=1;whiteSpace=wrap;html=1;" parent="1" vertex="1">
          <mxGeometry x="1120" y="496" width="80" height="30" as="geometry" />
        </mxCell>
        <mxCell id="0dSPZriXZC8QqvjGXmse-90" value="&lt;p style=&quot;white-space-collapse: preserve;&quot; dir=&quot;auto&quot;&gt;&lt;font style=&quot;font-size: 10px;&quot;&gt;Pegawai Disyplay&lt;/font&gt;&lt;/p&gt;" style="rounded=1;whiteSpace=wrap;html=1;" parent="1" vertex="1">
          <mxGeometry x="1210" y="496" width="80" height="30" as="geometry" />
        </mxCell>
        <mxCell id="0dSPZriXZC8QqvjGXmse-92" value="" style="endArrow=none;html=1;rounded=0;fontSize=12;startSize=8;endSize=8;curved=1;entryX=0;entryY=0.5;entryDx=0;entryDy=0;" parent="1" target="0dSPZriXZC8QqvjGXmse-87" edge="1">
          <mxGeometry width="50" height="50" relative="1" as="geometry">
            <mxPoint x="1160" y="451" as="sourcePoint" />
            <mxPoint x="1185" y="407" as="targetPoint" />
          </mxGeometry>
        </mxCell>
        <mxCell id="0dSPZriXZC8QqvjGXmse-93" value="" style="endArrow=open;html=1;rounded=0;fontSize=12;startSize=8;endSize=8;curved=1;entryX=0.5;entryY=0;entryDx=0;entryDy=0;endFill=0;" parent="1" target="0dSPZriXZC8QqvjGXmse-89" edge="1">
          <mxGeometry width="50" height="50" relative="1" as="geometry">
            <mxPoint x="1160" y="450.5" as="sourcePoint" />
            <mxPoint x="1250" y="446" as="targetPoint" />
          </mxGeometry>
        </mxCell>
        <mxCell id="0dSPZriXZC8QqvjGXmse-96" value="Admin" style="edgeLabel;html=1;align=center;verticalAlign=middle;resizable=0;points=[];fontSize=12;" parent="0dSPZriXZC8QqvjGXmse-93" vertex="1" connectable="0">
          <mxGeometry x="-0.2938" relative="1" as="geometry">
            <mxPoint as="offset" />
          </mxGeometry>
        </mxCell>
        <mxCell id="0dSPZriXZC8QqvjGXmse-94" value="" style="endArrow=none;html=1;rounded=0;fontSize=12;startSize=8;endSize=8;curved=1;entryX=0;entryY=0.5;entryDx=0;entryDy=0;" parent="1" edge="1">
          <mxGeometry width="50" height="50" relative="1" as="geometry">
            <mxPoint x="1215" y="450.9" as="sourcePoint" />
            <mxPoint x="1240" y="450.9" as="targetPoint" />
          </mxGeometry>
        </mxCell>
        <mxCell id="0dSPZriXZC8QqvjGXmse-95" value="" style="endArrow=open;html=1;rounded=0;fontSize=12;startSize=8;endSize=8;curved=1;entryX=0.5;entryY=0;entryDx=0;entryDy=0;endFill=0;" parent="1" edge="1">
          <mxGeometry width="50" height="50" relative="1" as="geometry">
            <mxPoint x="1240" y="450.5" as="sourcePoint" />
            <mxPoint x="1240" y="496" as="targetPoint" />
          </mxGeometry>
        </mxCell>
        <mxCell id="0dSPZriXZC8QqvjGXmse-97" value="Pegawai" style="edgeLabel;html=1;align=center;verticalAlign=middle;resizable=0;points=[];fontSize=12;" parent="0dSPZriXZC8QqvjGXmse-95" vertex="1" connectable="0">
          <mxGeometry x="-0.2938" relative="1" as="geometry">
            <mxPoint as="offset" />
          </mxGeometry>
        </mxCell>
        <mxCell id="0dSPZriXZC8QqvjGXmse-99" value="" style="ellipse;whiteSpace=wrap;html=1;aspect=fixed;gradientColor=none;fillColor=#000000;fillStyle=solid;gradientDirection=north;" parent="1" vertex="1">
          <mxGeometry x="1400" y="200" width="20" height="20" as="geometry" />
        </mxCell>
        <mxCell id="0dSPZriXZC8QqvjGXmse-100" style="edgeStyle=none;curved=1;rounded=0;orthogonalLoop=1;jettySize=auto;html=1;exitX=0.5;exitY=1;exitDx=0;exitDy=0;entryX=0.5;entryY=0;entryDx=0;entryDy=0;fontSize=12;startSize=8;endSize=8;endArrow=open;endFill=0;strokeColor=light-dark(#404040, #ededed);" parent="1" edge="1">
          <mxGeometry relative="1" as="geometry">
            <mxPoint x="1409.83" y="220" as="sourcePoint" />
            <mxPoint x="1409.83" y="250" as="targetPoint" />
          </mxGeometry>
        </mxCell>
        <mxCell id="0dSPZriXZC8QqvjGXmse-101" value="&lt;p style=&quot;white-space-collapse: preserve;&quot; dir=&quot;auto&quot;&gt;&lt;font style=&quot;font-size: 10px;&quot;&gt;Validasi Hari&lt;br/&gt;(Hari libur/Tidak)&lt;/font&gt;&lt;/p&gt;" style="rounded=1;whiteSpace=wrap;html=1;" parent="1" vertex="1">
          <mxGeometry x="1540" y="410" width="80" height="30" as="geometry" />
        </mxCell>
        <mxCell id="0dSPZriXZC8QqvjGXmse-102" value="&lt;p style=&quot;white-space-collapse: preserve;&quot; dir=&quot;auto&quot;&gt;&lt;font style=&quot;font-size: 10px;&quot;&gt;Hitung Status&lt;/font&gt;&lt;/p&gt;" style="rounded=1;whiteSpace=wrap;html=1;" parent="1" vertex="1">
          <mxGeometry x="1500" y="510" width="80" height="30" as="geometry" />
        </mxCell>
        <mxCell id="0dSPZriXZC8QqvjGXmse-103" style="edgeStyle=none;curved=1;rounded=0;orthogonalLoop=1;jettySize=auto;html=1;exitX=0.5;exitY=1;exitDx=0;exitDy=0;entryX=0.5;entryY=0;entryDx=0;entryDy=0;fontSize=12;startSize=8;endSize=8;endArrow=open;endFill=0;strokeColor=light-dark(#404040, #ededed);" parent="1" edge="1">
          <mxGeometry relative="1" as="geometry">
            <mxPoint x="1579.5" y="440" as="sourcePoint" />
            <mxPoint x="1579.5" y="470" as="targetPoint" />
          </mxGeometry>
        </mxCell>
        <mxCell id="0dSPZriXZC8QqvjGXmse-104" value="" style="rhombus;whiteSpace=wrap;html=1;" parent="1" vertex="1">
          <mxGeometry x="1570" y="470" width="20" height="20" as="geometry" />
        </mxCell>
        <mxCell id="0dSPZriXZC8QqvjGXmse-107" value="&lt;p style=&quot;white-space-collapse: preserve;&quot; dir=&quot;auto&quot;&gt;&lt;font style=&quot;font-size: 10px;&quot;&gt;Menampilkan pesan error&lt;/font&gt;&lt;/p&gt;" style="rounded=1;whiteSpace=wrap;html=1;" parent="1" vertex="1">
          <mxGeometry x="1590" y="510" width="80" height="30" as="geometry" />
        </mxCell>
        <mxCell id="0dSPZriXZC8QqvjGXmse-108" value="" style="endArrow=none;html=1;rounded=0;fontSize=12;startSize=8;endSize=8;curved=1;entryX=0;entryY=0.5;entryDx=0;entryDy=0;" parent="1" edge="1">
          <mxGeometry width="50" height="50" relative="1" as="geometry">
            <mxPoint x="1590" y="480" as="sourcePoint" />
            <mxPoint x="1630.5" y="480" as="targetPoint" />
          </mxGeometry>
        </mxCell>
        <mxCell id="0dSPZriXZC8QqvjGXmse-109" value="" style="endArrow=none;html=1;rounded=0;fontSize=12;startSize=8;endSize=8;curved=1;entryX=0;entryY=0.5;entryDx=0;entryDy=0;" parent="1" edge="1">
          <mxGeometry width="50" height="50" relative="1" as="geometry">
            <mxPoint x="1539.5" y="480" as="sourcePoint" />
            <mxPoint x="1570" y="480" as="targetPoint" />
          </mxGeometry>
        </mxCell>
        <mxCell id="0dSPZriXZC8QqvjGXmse-112" style="edgeStyle=none;curved=1;rounded=0;orthogonalLoop=1;jettySize=auto;html=1;exitX=0.5;exitY=1;exitDx=0;exitDy=0;entryX=0.5;entryY=0;entryDx=0;entryDy=0;fontSize=12;startSize=8;endSize=8;endArrow=open;endFill=0;strokeColor=light-dark(#404040, #ededed);" parent="1" edge="1">
          <mxGeometry relative="1" as="geometry">
            <mxPoint x="1539.88" y="480" as="sourcePoint" />
            <mxPoint x="1539.88" y="510" as="targetPoint" />
          </mxGeometry>
        </mxCell>
        <mxCell id="0dSPZriXZC8QqvjGXmse-114" value="no" style="edgeLabel;html=1;align=center;verticalAlign=middle;resizable=0;points=[];fontSize=12;" parent="0dSPZriXZC8QqvjGXmse-112" vertex="1" connectable="0">
          <mxGeometry x="-0.4175" relative="1" as="geometry">
            <mxPoint as="offset" />
          </mxGeometry>
        </mxCell>
        <mxCell id="0dSPZriXZC8QqvjGXmse-113" style="edgeStyle=none;curved=1;rounded=0;orthogonalLoop=1;jettySize=auto;html=1;exitX=0.5;exitY=1;exitDx=0;exitDy=0;entryX=0.5;entryY=0;entryDx=0;entryDy=0;fontSize=12;startSize=8;endSize=8;endArrow=open;endFill=0;strokeColor=light-dark(#404040, #ededed);" parent="1" edge="1">
          <mxGeometry relative="1" as="geometry">
            <mxPoint x="1629.92" y="480" as="sourcePoint" />
            <mxPoint x="1629.92" y="510" as="targetPoint" />
          </mxGeometry>
        </mxCell>
        <mxCell id="0dSPZriXZC8QqvjGXmse-115" value="yes" style="edgeLabel;html=1;align=center;verticalAlign=middle;resizable=0;points=[];fontSize=12;" parent="0dSPZriXZC8QqvjGXmse-113" vertex="1" connectable="0">
          <mxGeometry x="-0.2762" y="-1" relative="1" as="geometry">
            <mxPoint as="offset" />
          </mxGeometry>
        </mxCell>
        <mxCell id="0dSPZriXZC8QqvjGXmse-116" value="&lt;p style=&quot;white-space-collapse: preserve;&quot; dir=&quot;auto&quot;&gt;&lt;font style=&quot;font-size: 10px;&quot;&gt;Simpan check-in&lt;/font&gt;&lt;/p&gt;" style="rounded=1;whiteSpace=wrap;html=1;" parent="1" vertex="1">
          <mxGeometry x="1500" y="570" width="80" height="30" as="geometry" />
        </mxCell>
        <mxCell id="0dSPZriXZC8QqvjGXmse-117" style="edgeStyle=none;curved=1;rounded=0;orthogonalLoop=1;jettySize=auto;html=1;exitX=0.5;exitY=1;exitDx=0;exitDy=0;entryX=0.5;entryY=0;entryDx=0;entryDy=0;fontSize=12;startSize=8;endSize=8;endArrow=open;endFill=0;strokeColor=light-dark(#404040, #ededed);" parent="1" edge="1">
          <mxGeometry relative="1" as="geometry">
            <mxPoint x="1539.7600000000002" y="540" as="sourcePoint" />
            <mxPoint x="1539.7600000000002" y="570" as="targetPoint" />
          </mxGeometry>
        </mxCell>
        <mxCell id="0dSPZriXZC8QqvjGXmse-126" value="&lt;p style=&quot;white-space-collapse: preserve;&quot; dir=&quot;auto&quot;&gt;&lt;span style=&quot;font-size: 10px;&quot;&gt;Validasi Inputan&lt;br/&gt;(Sesuai/Tidak)&lt;/span&gt;&lt;/p&gt;" style="rounded=1;whiteSpace=wrap;html=1;" parent="1" vertex="1">
          <mxGeometry x="1580.5" y="310" width="80" height="30" as="geometry" />
        </mxCell>
        <mxCell id="0dSPZriXZC8QqvjGXmse-128" style="edgeStyle=none;curved=1;rounded=0;orthogonalLoop=1;jettySize=auto;html=1;exitX=0.5;exitY=1;exitDx=0;exitDy=0;entryX=0.5;entryY=0;entryDx=0;entryDy=0;fontSize=12;startSize=8;endSize=8;endArrow=open;endFill=0;strokeColor=light-dark(#404040, #ededed);" parent="1" edge="1">
          <mxGeometry relative="1" as="geometry">
            <mxPoint x="1620" y="340" as="sourcePoint" />
            <mxPoint x="1620" y="370" as="targetPoint" />
          </mxGeometry>
        </mxCell>
        <mxCell id="0dSPZriXZC8QqvjGXmse-129" value="" style="rhombus;whiteSpace=wrap;html=1;" parent="1" vertex="1">
          <mxGeometry x="1610.5" y="370" width="20" height="20" as="geometry" />
        </mxCell>
        <mxCell id="0dSPZriXZC8QqvjGXmse-130" value="&lt;p style=&quot;white-space-collapse: preserve;&quot; dir=&quot;auto&quot;&gt;&lt;font style=&quot;font-size: 10px;&quot;&gt;Menampilkan pesan error&lt;/font&gt;&lt;/p&gt;" style="rounded=1;whiteSpace=wrap;html=1;" parent="1" vertex="1">
          <mxGeometry x="1630.5" y="406" width="80" height="30" as="geometry" />
        </mxCell>
        <mxCell id="0dSPZriXZC8QqvjGXmse-131" value="" style="endArrow=none;html=1;rounded=0;fontSize=12;startSize=8;endSize=8;curved=1;entryX=0;entryY=0.5;entryDx=0;entryDy=0;" parent="1" edge="1">
          <mxGeometry width="50" height="50" relative="1" as="geometry">
            <mxPoint x="1630.5" y="380" as="sourcePoint" />
            <mxPoint x="1671" y="380" as="targetPoint" />
          </mxGeometry>
        </mxCell>
        <mxCell id="0dSPZriXZC8QqvjGXmse-132" value="" style="endArrow=none;html=1;rounded=0;fontSize=12;startSize=8;endSize=8;curved=1;entryX=0;entryY=0.5;entryDx=0;entryDy=0;" parent="1" edge="1">
          <mxGeometry width="50" height="50" relative="1" as="geometry">
            <mxPoint x="1580" y="380" as="sourcePoint" />
            <mxPoint x="1610.5" y="380" as="targetPoint" />
          </mxGeometry>
        </mxCell>
        <mxCell id="0dSPZriXZC8QqvjGXmse-133" style="edgeStyle=none;curved=1;rounded=0;orthogonalLoop=1;jettySize=auto;html=1;exitX=0.5;exitY=1;exitDx=0;exitDy=0;entryX=0.5;entryY=0;entryDx=0;entryDy=0;fontSize=12;startSize=8;endSize=8;endArrow=open;endFill=0;strokeColor=light-dark(#404040, #ededed);" parent="1" edge="1">
          <mxGeometry relative="1" as="geometry">
            <mxPoint x="1580.38" y="380" as="sourcePoint" />
            <mxPoint x="1580.38" y="410" as="targetPoint" />
          </mxGeometry>
        </mxCell>
        <mxCell id="0dSPZriXZC8QqvjGXmse-134" value="yes" style="edgeLabel;html=1;align=center;verticalAlign=middle;resizable=0;points=[];fontSize=12;" parent="0dSPZriXZC8QqvjGXmse-133" vertex="1" connectable="0">
          <mxGeometry x="-0.4175" relative="1" as="geometry">
            <mxPoint as="offset" />
          </mxGeometry>
        </mxCell>
        <mxCell id="0dSPZriXZC8QqvjGXmse-135" style="edgeStyle=none;curved=1;rounded=0;orthogonalLoop=1;jettySize=auto;html=1;exitX=0.5;exitY=1;exitDx=0;exitDy=0;entryX=0.5;entryY=0;entryDx=0;entryDy=0;fontSize=12;startSize=8;endSize=8;endArrow=open;endFill=0;strokeColor=light-dark(#404040, #ededed);" parent="1" edge="1">
          <mxGeometry relative="1" as="geometry">
            <mxPoint x="1670.42" y="380" as="sourcePoint" />
            <mxPoint x="1670.42" y="410" as="targetPoint" />
          </mxGeometry>
        </mxCell>
        <mxCell id="0dSPZriXZC8QqvjGXmse-136" value="no" style="edgeLabel;html=1;align=center;verticalAlign=middle;resizable=0;points=[];fontSize=12;" parent="0dSPZriXZC8QqvjGXmse-135" vertex="1" connectable="0">
          <mxGeometry x="-0.2762" y="-1" relative="1" as="geometry">
            <mxPoint as="offset" />
          </mxGeometry>
        </mxCell>
        <mxCell id="0dSPZriXZC8QqvjGXmse-164" value="" style="verticalLabelPosition=bottom;verticalAlign=top;html=1;shape=mxgraph.basic.rect;fillColor2=none;strokeWidth=1;size=20;indent=5;movable=1;resizable=1;rotatable=1;deletable=1;editable=1;locked=0;connectable=1;" parent="1" vertex="1">
          <mxGeometry x="1340" y="756" width="140" height="622" as="geometry" />
        </mxCell>
        <mxCell id="0dSPZriXZC8QqvjGXmse-165" value="" style="verticalLabelPosition=bottom;verticalAlign=top;html=1;shape=mxgraph.basic.rect;fillColor2=none;strokeWidth=1;size=20;indent=5;movable=1;resizable=1;rotatable=1;deletable=1;editable=1;locked=0;connectable=1;" parent="1" vertex="1">
          <mxGeometry x="1480" y="756" width="290" height="622" as="geometry" />
        </mxCell>
        <mxCell id="0dSPZriXZC8QqvjGXmse-166" value="&lt;font style=&quot;font-size: 12px;&quot;&gt;Admin&lt;/font&gt;" style="text;strokeColor=none;fillColor=none;html=1;fontSize=24;fontStyle=1;verticalAlign=middle;align=center;" parent="1" vertex="1">
          <mxGeometry x="1360" y="750" width="100" height="40" as="geometry" />
        </mxCell>
        <mxCell id="0dSPZriXZC8QqvjGXmse-167" value="&lt;font style=&quot;font-size: 12px;&quot;&gt;Sistem&lt;/font&gt;" style="text;strokeColor=none;fillColor=none;html=1;fontSize=24;fontStyle=1;verticalAlign=middle;align=center;" parent="1" vertex="1">
          <mxGeometry x="1570.25" y="760" width="100" height="30" as="geometry" />
        </mxCell>
        <mxCell id="0dSPZriXZC8QqvjGXmse-168" value="&lt;p style=&quot;white-space-collapse: preserve;&quot; dir=&quot;auto&quot;&gt;&lt;font style=&quot;font-size: 10px;&quot;&gt;Mendaftarkan akun pegawai&lt;/font&gt;&lt;/p&gt;" style="rounded=1;whiteSpace=wrap;html=1;" parent="1" vertex="1">
          <mxGeometry x="1370" y="854" width="80" height="30" as="geometry" />
        </mxCell>
        <mxCell id="0dSPZriXZC8QqvjGXmse-169" style="edgeStyle=none;curved=1;rounded=0;orthogonalLoop=1;jettySize=auto;html=1;exitX=1;exitY=0.5;exitDx=0;exitDy=0;fontSize=12;startSize=8;endSize=8;" parent="1" edge="1">
          <mxGeometry relative="1" as="geometry">
            <mxPoint x="1450" y="868.75" as="sourcePoint" />
            <mxPoint x="1580.5" y="868.75" as="targetPoint" />
          </mxGeometry>
        </mxCell>
        <mxCell id="0dSPZriXZC8QqvjGXmse-170" value="&lt;p style=&quot;white-space-collapse: preserve;&quot; dir=&quot;auto&quot;&gt;&lt;font style=&quot;font-size: 10px;&quot;&gt;Lihat daftar pegawai&lt;/font&gt;&lt;/p&gt;" style="rounded=1;whiteSpace=wrap;html=1;" parent="1" vertex="1">
          <mxGeometry x="1370" y="954" width="80" height="30" as="geometry" />
        </mxCell>
        <mxCell id="0dSPZriXZC8QqvjGXmse-172" value="&lt;p style=&quot;white-space-collapse: preserve;&quot; dir=&quot;auto&quot;&gt;&lt;span style=&quot;font-size: 10px;&quot;&gt;Menampilkan &lt;/span&gt;&lt;/p&gt;" style="rounded=1;whiteSpace=wrap;html=1;" parent="1" vertex="1">
          <mxGeometry x="1580.5" y="1018" width="80" height="30" as="geometry" />
        </mxCell>
        <mxCell id="0dSPZriXZC8QqvjGXmse-173" value="" style="ellipse;whiteSpace=wrap;html=1;aspect=fixed;gradientColor=none;fillColor=#000000;fillStyle=solid;gradientDirection=north;" parent="1" vertex="1">
          <mxGeometry x="1400" y="804" width="20" height="20" as="geometry" />
        </mxCell>
        <mxCell id="0dSPZriXZC8QqvjGXmse-174" style="edgeStyle=none;curved=1;rounded=0;orthogonalLoop=1;jettySize=auto;html=1;exitX=0.5;exitY=1;exitDx=0;exitDy=0;entryX=0.5;entryY=0;entryDx=0;entryDy=0;fontSize=12;startSize=8;endSize=8;endArrow=open;endFill=0;strokeColor=light-dark(#404040, #ededed);" parent="1" edge="1">
          <mxGeometry relative="1" as="geometry">
            <mxPoint x="1409.83" y="824" as="sourcePoint" />
            <mxPoint x="1409.83" y="854" as="targetPoint" />
          </mxGeometry>
        </mxCell>
        <mxCell id="0dSPZriXZC8QqvjGXmse-227" style="edgeStyle=none;curved=1;rounded=0;orthogonalLoop=1;jettySize=auto;html=1;exitX=0;exitY=0.5;exitDx=0;exitDy=0;entryX=1;entryY=0.5;entryDx=0;entryDy=0;fontSize=12;startSize=8;endSize=8;endArrow=open;endFill=0;" parent="1" source="0dSPZriXZC8QqvjGXmse-175" target="0dSPZriXZC8QqvjGXmse-170" edge="1">
          <mxGeometry relative="1" as="geometry" />
        </mxCell>
        <mxCell id="0dSPZriXZC8QqvjGXmse-175" value="&lt;p style=&quot;white-space-collapse: preserve;&quot; dir=&quot;auto&quot;&gt;&lt;span style=&quot;font-size: 10px;&quot;&gt;Simpan User&lt;/span&gt;&lt;/p&gt;" style="rounded=1;whiteSpace=wrap;html=1;" parent="1" vertex="1">
          <mxGeometry x="1540" y="954" width="80" height="30" as="geometry" />
        </mxCell>
        <mxCell id="0dSPZriXZC8QqvjGXmse-193" value="&lt;p style=&quot;white-space-collapse: preserve;&quot; dir=&quot;auto&quot;&gt;&lt;span style=&quot;font-size: 10px;&quot;&gt;Validasi Inputan&lt;br/&gt;(Sesuai/Tidak)&lt;/span&gt;&lt;/p&gt;" style="rounded=1;whiteSpace=wrap;html=1;" parent="1" vertex="1">
          <mxGeometry x="1580.5" y="854" width="80" height="30" as="geometry" />
        </mxCell>
        <mxCell id="0dSPZriXZC8QqvjGXmse-194" style="edgeStyle=none;curved=1;rounded=0;orthogonalLoop=1;jettySize=auto;html=1;exitX=0.5;exitY=1;exitDx=0;exitDy=0;entryX=0.5;entryY=0;entryDx=0;entryDy=0;fontSize=12;startSize=8;endSize=8;endArrow=open;endFill=0;strokeColor=light-dark(#404040, #ededed);" parent="1" edge="1">
          <mxGeometry relative="1" as="geometry">
            <mxPoint x="1620" y="884" as="sourcePoint" />
            <mxPoint x="1620" y="914" as="targetPoint" />
          </mxGeometry>
        </mxCell>
        <mxCell id="0dSPZriXZC8QqvjGXmse-195" value="" style="rhombus;whiteSpace=wrap;html=1;" parent="1" vertex="1">
          <mxGeometry x="1610.5" y="914" width="20" height="20" as="geometry" />
        </mxCell>
        <mxCell id="0dSPZriXZC8QqvjGXmse-196" value="&lt;p style=&quot;white-space-collapse: preserve;&quot; dir=&quot;auto&quot;&gt;&lt;font style=&quot;font-size: 10px;&quot;&gt;Menampilkan pesan error&lt;/font&gt;&lt;/p&gt;" style="rounded=1;whiteSpace=wrap;html=1;" parent="1" vertex="1">
          <mxGeometry x="1630.5" y="954" width="80" height="30" as="geometry" />
        </mxCell>
        <mxCell id="0dSPZriXZC8QqvjGXmse-197" value="" style="endArrow=none;html=1;rounded=0;fontSize=12;startSize=8;endSize=8;curved=1;entryX=0;entryY=0.5;entryDx=0;entryDy=0;" parent="1" edge="1">
          <mxGeometry width="50" height="50" relative="1" as="geometry">
            <mxPoint x="1630.5" y="924" as="sourcePoint" />
            <mxPoint x="1671" y="924" as="targetPoint" />
          </mxGeometry>
        </mxCell>
        <mxCell id="0dSPZriXZC8QqvjGXmse-198" value="" style="endArrow=none;html=1;rounded=0;fontSize=12;startSize=8;endSize=8;curved=1;entryX=0;entryY=0.5;entryDx=0;entryDy=0;" parent="1" edge="1">
          <mxGeometry width="50" height="50" relative="1" as="geometry">
            <mxPoint x="1580" y="924" as="sourcePoint" />
            <mxPoint x="1610.5" y="924" as="targetPoint" />
          </mxGeometry>
        </mxCell>
        <mxCell id="0dSPZriXZC8QqvjGXmse-199" style="edgeStyle=none;curved=1;rounded=0;orthogonalLoop=1;jettySize=auto;html=1;exitX=0.5;exitY=1;exitDx=0;exitDy=0;entryX=0.5;entryY=0;entryDx=0;entryDy=0;fontSize=12;startSize=8;endSize=8;endArrow=open;endFill=0;strokeColor=light-dark(#404040, #ededed);" parent="1" edge="1">
          <mxGeometry relative="1" as="geometry">
            <mxPoint x="1580.38" y="924" as="sourcePoint" />
            <mxPoint x="1580.38" y="954" as="targetPoint" />
          </mxGeometry>
        </mxCell>
        <mxCell id="0dSPZriXZC8QqvjGXmse-200" value="yes" style="edgeLabel;html=1;align=center;verticalAlign=middle;resizable=0;points=[];fontSize=12;" parent="0dSPZriXZC8QqvjGXmse-199" vertex="1" connectable="0">
          <mxGeometry x="-0.4175" relative="1" as="geometry">
            <mxPoint as="offset" />
          </mxGeometry>
        </mxCell>
        <mxCell id="0dSPZriXZC8QqvjGXmse-201" style="edgeStyle=none;curved=1;rounded=0;orthogonalLoop=1;jettySize=auto;html=1;exitX=0.5;exitY=1;exitDx=0;exitDy=0;entryX=0.5;entryY=0;entryDx=0;entryDy=0;fontSize=12;startSize=8;endSize=8;endArrow=open;endFill=0;strokeColor=light-dark(#404040, #ededed);" parent="1" edge="1">
          <mxGeometry relative="1" as="geometry">
            <mxPoint x="1670.42" y="924" as="sourcePoint" />
            <mxPoint x="1670.42" y="954" as="targetPoint" />
          </mxGeometry>
        </mxCell>
        <mxCell id="0dSPZriXZC8QqvjGXmse-202" value="no" style="edgeLabel;html=1;align=center;verticalAlign=middle;resizable=0;points=[];fontSize=12;" parent="0dSPZriXZC8QqvjGXmse-201" vertex="1" connectable="0">
          <mxGeometry x="-0.2762" y="-1" relative="1" as="geometry">
            <mxPoint as="offset" />
          </mxGeometry>
        </mxCell>
        <mxCell id="0dSPZriXZC8QqvjGXmse-228" style="edgeStyle=none;curved=1;rounded=0;orthogonalLoop=1;jettySize=auto;html=1;exitX=0.5;exitY=1;exitDx=0;exitDy=0;fontSize=12;startSize=8;endSize=8;endArrow=none;endFill=0;strokeColor=light-dark(#404040, #ededed);startFill=0;" parent="1" edge="1">
          <mxGeometry relative="1" as="geometry">
            <mxPoint x="1409.71" y="984" as="sourcePoint" />
            <mxPoint x="1410" y="1035" as="targetPoint" />
          </mxGeometry>
        </mxCell>
        <mxCell id="0dSPZriXZC8QqvjGXmse-230" value="&lt;p style=&quot;white-space-collapse: preserve;&quot; dir=&quot;auto&quot;&gt;&lt;span style=&quot;font-size: 10px;&quot;&gt;Menampilkan data&lt;/span&gt;&lt;/p&gt;" style="rounded=1;whiteSpace=wrap;html=1;" parent="1" vertex="1">
          <mxGeometry x="1580.25" y="1018" width="80" height="30" as="geometry" />
        </mxCell>
        <mxCell id="0dSPZriXZC8QqvjGXmse-231" value="&lt;p style=&quot;white-space-collapse: preserve;&quot; dir=&quot;auto&quot;&gt;&lt;font style=&quot;font-size: 10px;&quot;&gt;Mencari pegawai&lt;/font&gt;&lt;/p&gt;" style="rounded=1;whiteSpace=wrap;html=1;" parent="1" vertex="1">
          <mxGeometry x="1369.75" y="1083" width="80" height="30" as="geometry" />
        </mxCell>
        <mxCell id="0dSPZriXZC8QqvjGXmse-232" style="edgeStyle=none;curved=1;rounded=0;orthogonalLoop=1;jettySize=auto;html=1;exitX=0.5;exitY=1;exitDx=0;exitDy=0;fontSize=12;startSize=8;endSize=8;endArrow=none;endFill=0;strokeColor=light-dark(#404040, #ededed);startFill=0;" parent="1" edge="1">
          <mxGeometry relative="1" as="geometry">
            <mxPoint x="1624.5500000000002" y="1048" as="sourcePoint" />
            <mxPoint x="1624.8400000000001" y="1099" as="targetPoint" />
          </mxGeometry>
        </mxCell>
        <mxCell id="0dSPZriXZC8QqvjGXmse-233" style="edgeStyle=none;curved=1;rounded=0;orthogonalLoop=1;jettySize=auto;html=1;exitX=0.5;exitY=0.825;exitDx=0;exitDy=0;fontSize=12;startSize=8;endSize=8;endArrow=open;endFill=0;exitPerimeter=0;entryX=1;entryY=0.5;entryDx=0;entryDy=0;verticalAlign=middle;" parent="1" target="0dSPZriXZC8QqvjGXmse-231" edge="1">
          <mxGeometry relative="1" as="geometry">
            <mxPoint x="1624.25" y="1098.8" as="sourcePoint" />
            <mxPoint x="1453.25" y="1098.8" as="targetPoint" />
          </mxGeometry>
        </mxCell>
        <mxCell id="0dSPZriXZC8QqvjGXmse-234" style="edgeStyle=none;curved=1;rounded=0;orthogonalLoop=1;jettySize=auto;html=1;exitX=0.5;exitY=0.825;exitDx=0;exitDy=0;fontSize=12;startSize=8;endSize=8;endArrow=open;endFill=0;exitPerimeter=0;entryX=1;entryY=0.5;entryDx=0;entryDy=0;verticalAlign=middle;" parent="1" edge="1">
          <mxGeometry relative="1" as="geometry">
            <mxPoint x="1410.5" y="1034.2" as="sourcePoint" />
            <mxPoint x="1580.5" y="1035" as="targetPoint" />
          </mxGeometry>
        </mxCell>
        <mxCell id="0dSPZriXZC8QqvjGXmse-259" style="edgeStyle=none;curved=1;rounded=0;orthogonalLoop=1;jettySize=auto;html=1;exitX=1;exitY=0.5;exitDx=0;exitDy=0;entryX=0;entryY=0.5;entryDx=0;entryDy=0;fontSize=12;startSize=8;endSize=8;endArrow=open;endFill=0;" parent="1" source="0dSPZriXZC8QqvjGXmse-246" target="0dSPZriXZC8QqvjGXmse-249" edge="1">
          <mxGeometry relative="1" as="geometry" />
        </mxCell>
        <mxCell id="0dSPZriXZC8QqvjGXmse-246" value="&lt;p style=&quot;white-space-collapse: preserve;&quot; dir=&quot;auto&quot;&gt;&lt;font style=&quot;font-size: 10px;&quot;&gt;Input nama/id pegawai&lt;/font&gt;&lt;/p&gt;" style="rounded=1;whiteSpace=wrap;html=1;" parent="1" vertex="1">
          <mxGeometry x="1369.75" y="1143" width="80" height="30" as="geometry" />
        </mxCell>
        <mxCell id="0dSPZriXZC8QqvjGXmse-247" style="edgeStyle=none;curved=1;rounded=0;orthogonalLoop=1;jettySize=auto;html=1;exitX=0.5;exitY=1;exitDx=0;exitDy=0;entryX=0.5;entryY=0;entryDx=0;entryDy=0;fontSize=12;startSize=8;endSize=8;endArrow=open;endFill=0;strokeColor=light-dark(#404040, #ededed);" parent="1" edge="1">
          <mxGeometry relative="1" as="geometry">
            <mxPoint x="1409.71" y="1113" as="sourcePoint" />
            <mxPoint x="1409.71" y="1143" as="targetPoint" />
          </mxGeometry>
        </mxCell>
        <mxCell id="0dSPZriXZC8QqvjGXmse-261" style="edgeStyle=none;curved=1;rounded=0;orthogonalLoop=1;jettySize=auto;html=1;exitX=0;exitY=0.5;exitDx=0;exitDy=0;fontSize=12;startSize=8;endSize=8;endArrow=open;endFill=0;" parent="1" source="0dSPZriXZC8QqvjGXmse-248" target="0dSPZriXZC8QqvjGXmse-260" edge="1">
          <mxGeometry relative="1" as="geometry" />
        </mxCell>
        <mxCell id="0dSPZriXZC8QqvjGXmse-248" value="&lt;p style=&quot;white-space-collapse: preserve;&quot; dir=&quot;auto&quot;&gt;&lt;span style=&quot;font-size: 10px;&quot;&gt;Menampilkan data pegawai&lt;/span&gt;&lt;/p&gt;" style="rounded=1;whiteSpace=wrap;html=1;" parent="1" vertex="1">
          <mxGeometry x="1535.25" y="1243" width="80" height="30" as="geometry" />
        </mxCell>
        <mxCell id="0dSPZriXZC8QqvjGXmse-249" value="&lt;p style=&quot;white-space-collapse: preserve;&quot; dir=&quot;auto&quot;&gt;&lt;span style=&quot;font-size: 10px;&quot;&gt;Validasi Inputan&lt;br/&gt;(Sesuai/Tidak)&lt;/span&gt;&lt;/p&gt;" style="rounded=1;whiteSpace=wrap;html=1;" parent="1" vertex="1">
          <mxGeometry x="1575.75" y="1143" width="80" height="30" as="geometry" />
        </mxCell>
        <mxCell id="0dSPZriXZC8QqvjGXmse-250" style="edgeStyle=none;curved=1;rounded=0;orthogonalLoop=1;jettySize=auto;html=1;exitX=0.5;exitY=1;exitDx=0;exitDy=0;entryX=0.5;entryY=0;entryDx=0;entryDy=0;fontSize=12;startSize=8;endSize=8;endArrow=open;endFill=0;strokeColor=light-dark(#404040, #ededed);" parent="1" edge="1">
          <mxGeometry relative="1" as="geometry">
            <mxPoint x="1615.25" y="1173" as="sourcePoint" />
            <mxPoint x="1615.25" y="1203" as="targetPoint" />
          </mxGeometry>
        </mxCell>
        <mxCell id="0dSPZriXZC8QqvjGXmse-251" value="" style="rhombus;whiteSpace=wrap;html=1;" parent="1" vertex="1">
          <mxGeometry x="1605.75" y="1203" width="20" height="20" as="geometry" />
        </mxCell>
        <mxCell id="0dSPZriXZC8QqvjGXmse-252" value="&lt;p style=&quot;white-space-collapse: preserve;&quot; dir=&quot;auto&quot;&gt;&lt;font style=&quot;font-size: 10px;&quot;&gt;Menampilkan pesan error&lt;/font&gt;&lt;/p&gt;" style="rounded=1;whiteSpace=wrap;html=1;" parent="1" vertex="1">
          <mxGeometry x="1625.75" y="1243" width="80" height="30" as="geometry" />
        </mxCell>
        <mxCell id="0dSPZriXZC8QqvjGXmse-253" value="" style="endArrow=none;html=1;rounded=0;fontSize=12;startSize=8;endSize=8;curved=1;entryX=0;entryY=0.5;entryDx=0;entryDy=0;" parent="1" edge="1">
          <mxGeometry width="50" height="50" relative="1" as="geometry">
            <mxPoint x="1625.75" y="1213" as="sourcePoint" />
            <mxPoint x="1666.25" y="1213" as="targetPoint" />
          </mxGeometry>
        </mxCell>
        <mxCell id="0dSPZriXZC8QqvjGXmse-254" value="" style="endArrow=none;html=1;rounded=0;fontSize=12;startSize=8;endSize=8;curved=1;entryX=0;entryY=0.5;entryDx=0;entryDy=0;" parent="1" edge="1">
          <mxGeometry width="50" height="50" relative="1" as="geometry">
            <mxPoint x="1575.25" y="1213" as="sourcePoint" />
            <mxPoint x="1605.75" y="1213" as="targetPoint" />
          </mxGeometry>
        </mxCell>
        <mxCell id="0dSPZriXZC8QqvjGXmse-255" style="edgeStyle=none;curved=1;rounded=0;orthogonalLoop=1;jettySize=auto;html=1;exitX=0.5;exitY=1;exitDx=0;exitDy=0;entryX=0.5;entryY=0;entryDx=0;entryDy=0;fontSize=12;startSize=8;endSize=8;endArrow=open;endFill=0;strokeColor=light-dark(#404040, #ededed);" parent="1" edge="1">
          <mxGeometry relative="1" as="geometry">
            <mxPoint x="1575.63" y="1213" as="sourcePoint" />
            <mxPoint x="1575.63" y="1243" as="targetPoint" />
          </mxGeometry>
        </mxCell>
        <mxCell id="0dSPZriXZC8QqvjGXmse-256" value="yes" style="edgeLabel;html=1;align=center;verticalAlign=middle;resizable=0;points=[];fontSize=12;" parent="0dSPZriXZC8QqvjGXmse-255" vertex="1" connectable="0">
          <mxGeometry x="-0.4175" relative="1" as="geometry">
            <mxPoint as="offset" />
          </mxGeometry>
        </mxCell>
        <mxCell id="0dSPZriXZC8QqvjGXmse-257" style="edgeStyle=none;curved=1;rounded=0;orthogonalLoop=1;jettySize=auto;html=1;exitX=0.5;exitY=1;exitDx=0;exitDy=0;entryX=0.5;entryY=0;entryDx=0;entryDy=0;fontSize=12;startSize=8;endSize=8;endArrow=open;endFill=0;strokeColor=light-dark(#404040, #ededed);" parent="1" edge="1">
          <mxGeometry relative="1" as="geometry">
            <mxPoint x="1665.67" y="1213" as="sourcePoint" />
            <mxPoint x="1665.67" y="1243" as="targetPoint" />
          </mxGeometry>
        </mxCell>
        <mxCell id="0dSPZriXZC8QqvjGXmse-258" value="no" style="edgeLabel;html=1;align=center;verticalAlign=middle;resizable=0;points=[];fontSize=12;" parent="0dSPZriXZC8QqvjGXmse-257" vertex="1" connectable="0">
          <mxGeometry x="-0.2762" y="-1" relative="1" as="geometry">
            <mxPoint as="offset" />
          </mxGeometry>
        </mxCell>
        <mxCell id="0dSPZriXZC8QqvjGXmse-260" value="&lt;p style=&quot;white-space-collapse: preserve;&quot; dir=&quot;auto&quot;&gt;&lt;font style=&quot;font-size: 10px;&quot;&gt;Update/Delete data pegawai&lt;/font&gt;&lt;/p&gt;" style="rounded=1;whiteSpace=wrap;html=1;" parent="1" vertex="1">
          <mxGeometry x="1370" y="1243" width="80" height="30" as="geometry" />
        </mxCell>
        <mxCell id="0dSPZriXZC8QqvjGXmse-264" value="&lt;p style=&quot;white-space-collapse: preserve;&quot; dir=&quot;auto&quot;&gt;&lt;span style=&quot;font-size: 10px;&quot;&gt;Menampilkan &lt;/span&gt;&lt;/p&gt;" style="rounded=1;whiteSpace=wrap;html=1;" parent="1" vertex="1">
          <mxGeometry x="1580.25" y="1307" width="80" height="30" as="geometry" />
        </mxCell>
        <mxCell id="0dSPZriXZC8QqvjGXmse-265" style="edgeStyle=none;curved=1;rounded=0;orthogonalLoop=1;jettySize=auto;html=1;exitX=0.5;exitY=1;exitDx=0;exitDy=0;fontSize=12;startSize=8;endSize=8;endArrow=none;endFill=0;strokeColor=light-dark(#404040, #ededed);startFill=0;" parent="1" edge="1">
          <mxGeometry relative="1" as="geometry">
            <mxPoint x="1409.46" y="1273" as="sourcePoint" />
            <mxPoint x="1409.75" y="1324" as="targetPoint" />
          </mxGeometry>
        </mxCell>
        <mxCell id="0dSPZriXZC8QqvjGXmse-266" value="&lt;p style=&quot;white-space-collapse: preserve;&quot; dir=&quot;auto&quot;&gt;&lt;span style=&quot;font-size: 10px;&quot;&gt;Update Pegawai&lt;/span&gt;&lt;/p&gt;" style="rounded=1;whiteSpace=wrap;html=1;" parent="1" vertex="1">
          <mxGeometry x="1580" y="1307" width="80" height="30" as="geometry" />
        </mxCell>
        <mxCell id="0dSPZriXZC8QqvjGXmse-267" style="edgeStyle=none;curved=1;rounded=0;orthogonalLoop=1;jettySize=auto;html=1;exitX=0.5;exitY=0.825;exitDx=0;exitDy=0;fontSize=12;startSize=8;endSize=8;endArrow=open;endFill=0;exitPerimeter=0;entryX=1;entryY=0.5;entryDx=0;entryDy=0;verticalAlign=middle;" parent="1" edge="1">
          <mxGeometry relative="1" as="geometry">
            <mxPoint x="1410.25" y="1323.2" as="sourcePoint" />
            <mxPoint x="1580.25" y="1324" as="targetPoint" />
          </mxGeometry>
        </mxCell>
        <mxCell id="0dSPZriXZC8QqvjGXmse-268" value="" style="verticalLabelPosition=bottom;verticalAlign=top;html=1;shape=mxgraph.basic.rect;fillColor2=none;strokeWidth=1;size=20;indent=5;movable=1;resizable=1;rotatable=1;deletable=1;editable=1;locked=0;connectable=1;" parent="1" vertex="1">
          <mxGeometry x="2910" y="794" width="140" height="584" as="geometry" />
        </mxCell>
        <mxCell id="0dSPZriXZC8QqvjGXmse-269" value="" style="verticalLabelPosition=bottom;verticalAlign=top;html=1;shape=mxgraph.basic.rect;fillColor2=none;strokeWidth=1;size=20;indent=5;movable=1;resizable=1;rotatable=1;deletable=1;editable=1;locked=0;connectable=1;" parent="1" vertex="1">
          <mxGeometry x="3050" y="794" width="290" height="584" as="geometry" />
        </mxCell>
        <mxCell id="0dSPZriXZC8QqvjGXmse-270" value="&lt;font style=&quot;font-size: 12px;&quot;&gt;Admin&lt;/font&gt;" style="text;strokeColor=none;fillColor=none;html=1;fontSize=24;fontStyle=1;verticalAlign=middle;align=center;" parent="1" vertex="1">
          <mxGeometry x="2930" y="788" width="100" height="40" as="geometry" />
        </mxCell>
        <mxCell id="0dSPZriXZC8QqvjGXmse-271" value="&lt;font style=&quot;font-size: 12px;&quot;&gt;Sistem&lt;/font&gt;" style="text;strokeColor=none;fillColor=none;html=1;fontSize=24;fontStyle=1;verticalAlign=middle;align=center;" parent="1" vertex="1">
          <mxGeometry x="3140.25" y="798" width="100" height="30" as="geometry" />
        </mxCell>
        <mxCell id="0dSPZriXZC8QqvjGXmse-274" value="&lt;p style=&quot;white-space-collapse: preserve;&quot; dir=&quot;auto&quot;&gt;&lt;font style=&quot;font-size: 10px;&quot;&gt;Lihat daftar absensi&lt;/font&gt;&lt;/p&gt;" style="rounded=1;whiteSpace=wrap;html=1;" parent="1" vertex="1">
          <mxGeometry x="2943" y="892" width="80" height="30" as="geometry" />
        </mxCell>
        <mxCell id="0dSPZriXZC8QqvjGXmse-275" value="&lt;p style=&quot;white-space-collapse: preserve;&quot; dir=&quot;auto&quot;&gt;&lt;span style=&quot;font-size: 10px;&quot;&gt;Menampilkan &lt;/span&gt;&lt;/p&gt;" style="rounded=1;whiteSpace=wrap;html=1;" parent="1" vertex="1">
          <mxGeometry x="3153.5" y="930" width="80" height="30" as="geometry" />
        </mxCell>
        <mxCell id="0dSPZriXZC8QqvjGXmse-276" value="" style="ellipse;whiteSpace=wrap;html=1;aspect=fixed;gradientColor=none;fillColor=#000000;fillStyle=solid;gradientDirection=north;" parent="1" vertex="1">
          <mxGeometry x="2970" y="842" width="20" height="20" as="geometry" />
        </mxCell>
        <mxCell id="0dSPZriXZC8QqvjGXmse-277" style="edgeStyle=none;curved=1;rounded=0;orthogonalLoop=1;jettySize=auto;html=1;exitX=0.5;exitY=1;exitDx=0;exitDy=0;entryX=0.5;entryY=0;entryDx=0;entryDy=0;fontSize=12;startSize=8;endSize=8;endArrow=open;endFill=0;strokeColor=light-dark(#404040, #ededed);" parent="1" edge="1">
          <mxGeometry relative="1" as="geometry">
            <mxPoint x="2979.83" y="862" as="sourcePoint" />
            <mxPoint x="2979.83" y="892" as="targetPoint" />
          </mxGeometry>
        </mxCell>
        <mxCell id="0dSPZriXZC8QqvjGXmse-290" style="edgeStyle=none;curved=1;rounded=0;orthogonalLoop=1;jettySize=auto;html=1;exitX=0.5;exitY=1;exitDx=0;exitDy=0;fontSize=12;startSize=8;endSize=8;endArrow=none;endFill=0;strokeColor=light-dark(#404040, #ededed);startFill=0;" parent="1" edge="1">
          <mxGeometry relative="1" as="geometry">
            <mxPoint x="2982.71" y="922" as="sourcePoint" />
            <mxPoint x="2983" y="948" as="targetPoint" />
          </mxGeometry>
        </mxCell>
        <mxCell id="0dSPZriXZC8QqvjGXmse-291" value="&lt;p style=&quot;white-space-collapse: preserve;&quot; dir=&quot;auto&quot;&gt;&lt;span style=&quot;font-size: 10px;&quot;&gt;Menampilkan data&lt;/span&gt;&lt;/p&gt;" style="rounded=1;whiteSpace=wrap;html=1;" parent="1" vertex="1">
          <mxGeometry x="3153.25" y="930" width="80" height="30" as="geometry" />
        </mxCell>
        <mxCell id="0dSPZriXZC8QqvjGXmse-292" value="&lt;p style=&quot;white-space-collapse: preserve;&quot; dir=&quot;auto&quot;&gt;&lt;font style=&quot;font-size: 10px;&quot;&gt;Filter absensi&lt;/font&gt;&lt;/p&gt;" style="rounded=1;whiteSpace=wrap;html=1;" parent="1" vertex="1">
          <mxGeometry x="2942.75" y="976" width="80" height="30" as="geometry" />
        </mxCell>
        <mxCell id="0dSPZriXZC8QqvjGXmse-293" style="edgeStyle=none;curved=1;rounded=0;orthogonalLoop=1;jettySize=auto;html=1;exitX=0.5;exitY=1;exitDx=0;exitDy=0;fontSize=12;startSize=8;endSize=8;endArrow=none;endFill=0;strokeColor=light-dark(#404040, #ededed);startFill=0;" parent="1" edge="1">
          <mxGeometry relative="1" as="geometry">
            <mxPoint x="3197.55" y="960" as="sourcePoint" />
            <mxPoint x="3197.84" y="993" as="targetPoint" />
          </mxGeometry>
        </mxCell>
        <mxCell id="0dSPZriXZC8QqvjGXmse-294" style="edgeStyle=none;curved=1;rounded=0;orthogonalLoop=1;jettySize=auto;html=1;exitX=0.5;exitY=0.825;exitDx=0;exitDy=0;fontSize=12;startSize=8;endSize=8;endArrow=open;endFill=0;exitPerimeter=0;entryX=1;entryY=0.5;entryDx=0;entryDy=0;verticalAlign=middle;" parent="1" target="0dSPZriXZC8QqvjGXmse-292" edge="1">
          <mxGeometry relative="1" as="geometry">
            <mxPoint x="3197.25" y="991.8" as="sourcePoint" />
            <mxPoint x="3026.25" y="991.8" as="targetPoint" />
          </mxGeometry>
        </mxCell>
        <mxCell id="0dSPZriXZC8QqvjGXmse-295" style="edgeStyle=none;curved=1;rounded=0;orthogonalLoop=1;jettySize=auto;html=1;exitX=0.5;exitY=0.825;exitDx=0;exitDy=0;fontSize=12;startSize=8;endSize=8;endArrow=open;endFill=0;exitPerimeter=0;entryX=1;entryY=0.5;entryDx=0;entryDy=0;verticalAlign=middle;" parent="1" edge="1">
          <mxGeometry relative="1" as="geometry">
            <mxPoint x="2983.5" y="946.2" as="sourcePoint" />
            <mxPoint x="3153.5" y="947" as="targetPoint" />
          </mxGeometry>
        </mxCell>
        <mxCell id="0dSPZriXZC8QqvjGXmse-296" style="edgeStyle=none;curved=1;rounded=0;orthogonalLoop=1;jettySize=auto;html=1;exitX=1;exitY=0.5;exitDx=0;exitDy=0;entryX=0;entryY=0.5;entryDx=0;entryDy=0;fontSize=12;startSize=8;endSize=8;endArrow=open;endFill=0;" parent="1" source="0dSPZriXZC8QqvjGXmse-297" target="0dSPZriXZC8QqvjGXmse-301" edge="1">
          <mxGeometry relative="1" as="geometry" />
        </mxCell>
        <mxCell id="0dSPZriXZC8QqvjGXmse-297" value="&lt;p style=&quot;white-space-collapse: preserve;&quot; dir=&quot;auto&quot;&gt;&lt;span style=&quot;font-size: 10px;&quot;&gt;Input Filter&lt;/span&gt;&lt;/p&gt;" style="rounded=1;whiteSpace=wrap;html=1;" parent="1" vertex="1">
          <mxGeometry x="2942.75" y="1036" width="80" height="30" as="geometry" />
        </mxCell>
        <mxCell id="0dSPZriXZC8QqvjGXmse-298" style="edgeStyle=none;curved=1;rounded=0;orthogonalLoop=1;jettySize=auto;html=1;exitX=0.5;exitY=1;exitDx=0;exitDy=0;entryX=0.5;entryY=0;entryDx=0;entryDy=0;fontSize=12;startSize=8;endSize=8;endArrow=open;endFill=0;strokeColor=light-dark(#404040, #ededed);" parent="1" edge="1">
          <mxGeometry relative="1" as="geometry">
            <mxPoint x="2982.71" y="1006" as="sourcePoint" />
            <mxPoint x="2982.71" y="1036" as="targetPoint" />
          </mxGeometry>
        </mxCell>
        <mxCell id="0dSPZriXZC8QqvjGXmse-299" style="edgeStyle=none;curved=1;rounded=0;orthogonalLoop=1;jettySize=auto;html=1;exitX=0;exitY=0.5;exitDx=0;exitDy=0;fontSize=12;startSize=8;endSize=8;endArrow=open;endFill=0;" parent="1" source="0dSPZriXZC8QqvjGXmse-300" target="0dSPZriXZC8QqvjGXmse-311" edge="1">
          <mxGeometry relative="1" as="geometry" />
        </mxCell>
        <mxCell id="0dSPZriXZC8QqvjGXmse-300" value="&lt;p style=&quot;white-space-collapse: preserve;&quot; dir=&quot;auto&quot;&gt;&lt;span style=&quot;font-size: 10px;&quot;&gt;Menampilkan data&lt;/span&gt;&lt;/p&gt;" style="rounded=1;whiteSpace=wrap;html=1;" parent="1" vertex="1">
          <mxGeometry x="3108" y="1146" width="80" height="30" as="geometry" />
        </mxCell>
        <mxCell id="0dSPZriXZC8QqvjGXmse-301" value="&lt;p style=&quot;white-space-collapse: preserve;&quot; dir=&quot;auto&quot;&gt;&lt;span style=&quot;font-size: 10px;&quot;&gt;Mencari data berdasarkan inputan&lt;/span&gt;&lt;/p&gt;" style="rounded=1;whiteSpace=wrap;html=1;" parent="1" vertex="1">
          <mxGeometry x="3148.5" y="1028" width="91.25" height="48" as="geometry" />
        </mxCell>
        <mxCell id="0dSPZriXZC8QqvjGXmse-302" style="edgeStyle=none;curved=1;rounded=0;orthogonalLoop=1;jettySize=auto;html=1;exitX=0.5;exitY=1;exitDx=0;exitDy=0;entryX=0.5;entryY=0;entryDx=0;entryDy=0;fontSize=12;startSize=8;endSize=8;endArrow=open;endFill=0;strokeColor=light-dark(#404040, #ededed);" parent="1" edge="1">
          <mxGeometry relative="1" as="geometry">
            <mxPoint x="3188" y="1076" as="sourcePoint" />
            <mxPoint x="3188" y="1106" as="targetPoint" />
          </mxGeometry>
        </mxCell>
        <mxCell id="0dSPZriXZC8QqvjGXmse-303" value="" style="rhombus;whiteSpace=wrap;html=1;" parent="1" vertex="1">
          <mxGeometry x="3178.5" y="1106" width="20" height="20" as="geometry" />
        </mxCell>
        <mxCell id="0dSPZriXZC8QqvjGXmse-304" value="&lt;p style=&quot;white-space-collapse: preserve;&quot; dir=&quot;auto&quot;&gt;&lt;font style=&quot;font-size: 10px;&quot;&gt;Menampilkan pesan error&lt;/font&gt;&lt;/p&gt;" style="rounded=1;whiteSpace=wrap;html=1;" parent="1" vertex="1">
          <mxGeometry x="3198.5" y="1146" width="80" height="30" as="geometry" />
        </mxCell>
        <mxCell id="0dSPZriXZC8QqvjGXmse-305" value="" style="endArrow=none;html=1;rounded=0;fontSize=12;startSize=8;endSize=8;curved=1;entryX=0;entryY=0.5;entryDx=0;entryDy=0;" parent="1" edge="1">
          <mxGeometry width="50" height="50" relative="1" as="geometry">
            <mxPoint x="3198.5" y="1116" as="sourcePoint" />
            <mxPoint x="3239" y="1116" as="targetPoint" />
          </mxGeometry>
        </mxCell>
        <mxCell id="0dSPZriXZC8QqvjGXmse-306" value="" style="endArrow=none;html=1;rounded=0;fontSize=12;startSize=8;endSize=8;curved=1;entryX=0;entryY=0.5;entryDx=0;entryDy=0;" parent="1" edge="1">
          <mxGeometry width="50" height="50" relative="1" as="geometry">
            <mxPoint x="3148" y="1116" as="sourcePoint" />
            <mxPoint x="3178.5" y="1116" as="targetPoint" />
          </mxGeometry>
        </mxCell>
        <mxCell id="0dSPZriXZC8QqvjGXmse-307" style="edgeStyle=none;curved=1;rounded=0;orthogonalLoop=1;jettySize=auto;html=1;exitX=0.5;exitY=1;exitDx=0;exitDy=0;entryX=0.5;entryY=0;entryDx=0;entryDy=0;fontSize=12;startSize=8;endSize=8;endArrow=open;endFill=0;strokeColor=light-dark(#404040, #ededed);" parent="1" edge="1">
          <mxGeometry relative="1" as="geometry">
            <mxPoint x="3148.38" y="1116" as="sourcePoint" />
            <mxPoint x="3148.38" y="1146" as="targetPoint" />
          </mxGeometry>
        </mxCell>
        <mxCell id="0dSPZriXZC8QqvjGXmse-308" value="yes" style="edgeLabel;html=1;align=center;verticalAlign=middle;resizable=0;points=[];fontSize=12;" parent="0dSPZriXZC8QqvjGXmse-307" vertex="1" connectable="0">
          <mxGeometry x="-0.4175" relative="1" as="geometry">
            <mxPoint as="offset" />
          </mxGeometry>
        </mxCell>
        <mxCell id="0dSPZriXZC8QqvjGXmse-309" style="edgeStyle=none;curved=1;rounded=0;orthogonalLoop=1;jettySize=auto;html=1;exitX=0.5;exitY=1;exitDx=0;exitDy=0;entryX=0.5;entryY=0;entryDx=0;entryDy=0;fontSize=12;startSize=8;endSize=8;endArrow=open;endFill=0;strokeColor=light-dark(#404040, #ededed);" parent="1" edge="1">
          <mxGeometry relative="1" as="geometry">
            <mxPoint x="3238.42" y="1116" as="sourcePoint" />
            <mxPoint x="3238.42" y="1146" as="targetPoint" />
          </mxGeometry>
        </mxCell>
        <mxCell id="0dSPZriXZC8QqvjGXmse-310" value="no" style="edgeLabel;html=1;align=center;verticalAlign=middle;resizable=0;points=[];fontSize=12;" parent="0dSPZriXZC8QqvjGXmse-309" vertex="1" connectable="0">
          <mxGeometry x="-0.2762" y="-1" relative="1" as="geometry">
            <mxPoint as="offset" />
          </mxGeometry>
        </mxCell>
        <mxCell id="0dSPZriXZC8QqvjGXmse-311" value="&lt;p style=&quot;white-space-collapse: preserve;&quot; dir=&quot;auto&quot;&gt;&lt;font style=&quot;font-size: 10px;&quot;&gt;Melihat data&lt;/font&gt;&lt;/p&gt;" style="rounded=1;whiteSpace=wrap;html=1;" parent="1" vertex="1">
          <mxGeometry x="2943" y="1146" width="80" height="30" as="geometry" />
        </mxCell>
        <mxCell id="0dSPZriXZC8QqvjGXmse-316" value="&lt;p style=&quot;white-space-collapse: preserve;&quot; dir=&quot;auto&quot;&gt;&lt;font style=&quot;font-size: 10px;&quot;&gt;Mengunduh Riwayat Absensi&lt;/font&gt;&lt;/p&gt;" style="rounded=1;whiteSpace=wrap;html=1;" parent="1" vertex="1">
          <mxGeometry x="2943" y="1208" width="80" height="30" as="geometry" />
        </mxCell>
        <mxCell id="0dSPZriXZC8QqvjGXmse-318" style="edgeStyle=none;curved=1;rounded=0;orthogonalLoop=1;jettySize=auto;html=1;exitX=0.5;exitY=1;exitDx=0;exitDy=0;fontSize=12;startSize=8;endSize=8;endArrow=none;endFill=0;strokeColor=light-dark(#404040, #ededed);startFill=0;" parent="1" edge="1">
          <mxGeometry relative="1" as="geometry">
            <mxPoint x="2982.7" y="1238" as="sourcePoint" />
            <mxPoint x="2983" y="1268" as="targetPoint" />
          </mxGeometry>
        </mxCell>
        <mxCell id="0dSPZriXZC8QqvjGXmse-319" style="edgeStyle=none;curved=1;rounded=0;orthogonalLoop=1;jettySize=auto;html=1;exitX=0.5;exitY=0.825;exitDx=0;exitDy=0;fontSize=12;startSize=8;endSize=8;endArrow=open;endFill=0;exitPerimeter=0;entryX=0;entryY=0.5;entryDx=0;entryDy=0;verticalAlign=middle;" parent="1" target="0dSPZriXZC8QqvjGXmse-321" edge="1">
          <mxGeometry relative="1" as="geometry">
            <mxPoint x="2983" y="1267" as="sourcePoint" />
            <mxPoint x="3153" y="1267.8" as="targetPoint" />
          </mxGeometry>
        </mxCell>
        <mxCell id="0dSPZriXZC8QqvjGXmse-320" style="edgeStyle=none;curved=1;rounded=0;orthogonalLoop=1;jettySize=auto;html=1;exitX=0.5;exitY=1;exitDx=0;exitDy=0;entryX=0.5;entryY=0;entryDx=0;entryDy=0;fontSize=12;startSize=8;endSize=8;endArrow=open;endFill=0;" parent="1" source="0dSPZriXZC8QqvjGXmse-321" target="0dSPZriXZC8QqvjGXmse-322" edge="1">
          <mxGeometry relative="1" as="geometry" />
        </mxCell>
        <mxCell id="0dSPZriXZC8QqvjGXmse-321" value="&lt;p style=&quot;white-space-collapse: preserve;&quot; dir=&quot;auto&quot;&gt;&lt;span style=&quot;font-size: 10px;&quot;&gt;Membuat PDF&lt;/span&gt;&lt;/p&gt;" style="rounded=1;whiteSpace=wrap;html=1;" parent="1" vertex="1">
          <mxGeometry x="3153.5" y="1252" width="80" height="30" as="geometry" />
        </mxCell>
        <mxCell id="0dSPZriXZC8QqvjGXmse-322" value="&lt;p style=&quot;white-space-collapse: preserve;&quot; dir=&quot;auto&quot;&gt;&lt;span style=&quot;font-size: 10px;&quot;&gt;Mengirim PDF&lt;/span&gt;&lt;/p&gt;" style="rounded=1;whiteSpace=wrap;html=1;" parent="1" vertex="1">
          <mxGeometry x="3153.5" y="1317" width="80" height="30" as="geometry" />
        </mxCell>
        <mxCell id="0dSPZriXZC8QqvjGXmse-323" style="edgeStyle=none;curved=1;rounded=0;orthogonalLoop=1;jettySize=auto;html=1;exitX=0.5;exitY=1;exitDx=0;exitDy=0;entryX=0.5;entryY=0;entryDx=0;entryDy=0;fontSize=12;startSize=8;endSize=8;endArrow=open;endFill=0;strokeColor=light-dark(#404040, #ededed);" parent="1" edge="1">
          <mxGeometry relative="1" as="geometry">
            <mxPoint x="2979.7" y="1176" as="sourcePoint" />
            <mxPoint x="2979.7" y="1206" as="targetPoint" />
          </mxGeometry>
        </mxCell>
        <mxCell id="cEof3JHG57jXNJ5j5Tlc-6" style="edgeStyle=orthogonalEdgeStyle;rounded=0;orthogonalLoop=1;jettySize=auto;html=1;exitX=0.5;exitY=1;exitDx=0;exitDy=0;entryX=0.5;entryY=0;entryDx=0;entryDy=0;" parent="1" source="cEof3JHG57jXNJ5j5Tlc-2" target="cEof3JHG57jXNJ5j5Tlc-3" edge="1">
          <mxGeometry relative="1" as="geometry" />
        </mxCell>
        <mxCell id="cEof3JHG57jXNJ5j5Tlc-2" value="Start" style="ellipse;whiteSpace=wrap;html=1;" parent="1" vertex="1">
          <mxGeometry x="-745" y="55" width="100" height="50" as="geometry" />
        </mxCell>
        <mxCell id="cEof3JHG57jXNJ5j5Tlc-7" style="edgeStyle=orthogonalEdgeStyle;rounded=0;orthogonalLoop=1;jettySize=auto;html=1;exitX=0.5;exitY=1;exitDx=0;exitDy=0;entryX=0.5;entryY=0;entryDx=0;entryDy=0;" parent="1" source="cEof3JHG57jXNJ5j5Tlc-3" target="cEof3JHG57jXNJ5j5Tlc-4" edge="1">
          <mxGeometry relative="1" as="geometry" />
        </mxCell>
        <mxCell id="cEof3JHG57jXNJ5j5Tlc-3" value="Input email dan password" style="shape=parallelogram;perimeter=parallelogramPerimeter;whiteSpace=wrap;html=1;fixedSize=1;" parent="1" vertex="1">
          <mxGeometry x="-800" y="140" width="210" height="60" as="geometry" />
        </mxCell>
        <mxCell id="cEof3JHG57jXNJ5j5Tlc-8" style="edgeStyle=orthogonalEdgeStyle;rounded=0;orthogonalLoop=1;jettySize=auto;html=1;exitX=0.5;exitY=1;exitDx=0;exitDy=0;" parent="1" source="cEof3JHG57jXNJ5j5Tlc-4" target="cEof3JHG57jXNJ5j5Tlc-5" edge="1">
          <mxGeometry relative="1" as="geometry" />
        </mxCell>
        <mxCell id="cEof3JHG57jXNJ5j5Tlc-9" value="yes" style="edgeLabel;html=1;align=center;verticalAlign=middle;resizable=0;points=[];" parent="cEof3JHG57jXNJ5j5Tlc-8" vertex="1" connectable="0">
          <mxGeometry x="-0.5006" relative="1" as="geometry">
            <mxPoint as="offset" />
          </mxGeometry>
        </mxCell>
        <mxCell id="cEof3JHG57jXNJ5j5Tlc-16" style="edgeStyle=orthogonalEdgeStyle;rounded=0;orthogonalLoop=1;jettySize=auto;html=1;exitX=1;exitY=0.5;exitDx=0;exitDy=0;entryX=0;entryY=0.5;entryDx=0;entryDy=0;" parent="1" source="cEof3JHG57jXNJ5j5Tlc-4" target="cEof3JHG57jXNJ5j5Tlc-15" edge="1">
          <mxGeometry relative="1" as="geometry" />
        </mxCell>
        <mxCell id="cEof3JHG57jXNJ5j5Tlc-4" value="Data Benar?" style="rhombus;whiteSpace=wrap;html=1;" parent="1" vertex="1">
          <mxGeometry x="-745" y="235" width="100" height="80" as="geometry" />
        </mxCell>
        <mxCell id="cEof3JHG57jXNJ5j5Tlc-13" style="edgeStyle=orthogonalEdgeStyle;rounded=0;orthogonalLoop=1;jettySize=auto;html=1;exitX=0.5;exitY=1;exitDx=0;exitDy=0;entryX=0.5;entryY=0;entryDx=0;entryDy=0;" parent="1" source="cEof3JHG57jXNJ5j5Tlc-5" target="cEof3JHG57jXNJ5j5Tlc-12" edge="1">
          <mxGeometry relative="1" as="geometry" />
        </mxCell>
        <mxCell id="cEof3JHG57jXNJ5j5Tlc-5" value="Masuk ke menu dashboard" style="rounded=0;whiteSpace=wrap;html=1;" parent="1" vertex="1">
          <mxGeometry x="-755" y="358" width="120" height="60" as="geometry" />
        </mxCell>
        <mxCell id="cEof3JHG57jXNJ5j5Tlc-12" value="End" style="ellipse;whiteSpace=wrap;html=1;" parent="1" vertex="1">
          <mxGeometry x="-745" y="460" width="100" height="50" as="geometry" />
        </mxCell>
        <mxCell id="cEof3JHG57jXNJ5j5Tlc-17" style="edgeStyle=orthogonalEdgeStyle;rounded=0;orthogonalLoop=1;jettySize=auto;html=1;exitX=0.5;exitY=0;exitDx=0;exitDy=0;entryX=1;entryY=0.5;entryDx=0;entryDy=0;" parent="1" source="cEof3JHG57jXNJ5j5Tlc-15" target="cEof3JHG57jXNJ5j5Tlc-3" edge="1">
          <mxGeometry relative="1" as="geometry">
            <Array as="points">
              <mxPoint x="-440" y="170" />
            </Array>
          </mxGeometry>
        </mxCell>
        <mxCell id="cEof3JHG57jXNJ5j5Tlc-15" value="Menampilkan pesan, &quot;email atau password tidak valid&quot;" style="shape=parallelogram;perimeter=parallelogramPerimeter;whiteSpace=wrap;html=1;fixedSize=1;" parent="1" vertex="1">
          <mxGeometry x="-545" y="245" width="210" height="60" as="geometry" />
        </mxCell>
        <mxCell id="cEof3JHG57jXNJ5j5Tlc-21" style="edgeStyle=orthogonalEdgeStyle;rounded=0;orthogonalLoop=1;jettySize=auto;html=1;exitX=0.5;exitY=1;exitDx=0;exitDy=0;entryX=0.5;entryY=0;entryDx=0;entryDy=0;" parent="1" source="cEof3JHG57jXNJ5j5Tlc-18" target="cEof3JHG57jXNJ5j5Tlc-19" edge="1">
          <mxGeometry relative="1" as="geometry" />
        </mxCell>
        <mxCell id="cEof3JHG57jXNJ5j5Tlc-18" value="Start" style="ellipse;whiteSpace=wrap;html=1;" parent="1" vertex="1">
          <mxGeometry x="-1305" y="65" width="100" height="50" as="geometry" />
        </mxCell>
        <mxCell id="cEof3JHG57jXNJ5j5Tlc-22" style="edgeStyle=orthogonalEdgeStyle;rounded=0;orthogonalLoop=1;jettySize=auto;html=1;exitX=0.5;exitY=1;exitDx=0;exitDy=0;entryX=0.5;entryY=0;entryDx=0;entryDy=0;" parent="1" source="cEof3JHG57jXNJ5j5Tlc-19" target="cEof3JHG57jXNJ5j5Tlc-20" edge="1">
          <mxGeometry relative="1" as="geometry" />
        </mxCell>
        <mxCell id="cEof3JHG57jXNJ5j5Tlc-19" value="Input Data Absensi" style="shape=parallelogram;perimeter=parallelogramPerimeter;whiteSpace=wrap;html=1;fixedSize=1;" parent="1" vertex="1">
          <mxGeometry x="-1360" y="160" width="210" height="60" as="geometry" />
        </mxCell>
        <mxCell id="cEof3JHG57jXNJ5j5Tlc-24" style="edgeStyle=orthogonalEdgeStyle;rounded=0;orthogonalLoop=1;jettySize=auto;html=1;exitX=0.5;exitY=1;exitDx=0;exitDy=0;entryX=0.5;entryY=0;entryDx=0;entryDy=0;" parent="1" source="cEof3JHG57jXNJ5j5Tlc-20" target="cEof3JHG57jXNJ5j5Tlc-23" edge="1">
          <mxGeometry relative="1" as="geometry" />
        </mxCell>
        <mxCell id="cEof3JHG57jXNJ5j5Tlc-26" style="edgeStyle=orthogonalEdgeStyle;rounded=0;orthogonalLoop=1;jettySize=auto;html=1;exitX=1;exitY=0.5;exitDx=0;exitDy=0;entryX=0;entryY=0.5;entryDx=0;entryDy=0;" parent="1" source="cEof3JHG57jXNJ5j5Tlc-20" target="cEof3JHG57jXNJ5j5Tlc-25" edge="1">
          <mxGeometry relative="1" as="geometry" />
        </mxCell>
        <mxCell id="cEof3JHG57jXNJ5j5Tlc-20" value="Data valid?" style="rhombus;whiteSpace=wrap;html=1;" parent="1" vertex="1">
          <mxGeometry x="-1305" y="265" width="100" height="80" as="geometry" />
        </mxCell>
        <mxCell id="cEof3JHG57jXNJ5j5Tlc-29" style="edgeStyle=orthogonalEdgeStyle;rounded=0;orthogonalLoop=1;jettySize=auto;html=1;exitX=0.5;exitY=1;exitDx=0;exitDy=0;entryX=0.5;entryY=0;entryDx=0;entryDy=0;" parent="1" source="cEof3JHG57jXNJ5j5Tlc-23" target="cEof3JHG57jXNJ5j5Tlc-28" edge="1">
          <mxGeometry relative="1" as="geometry" />
        </mxCell>
        <mxCell id="cEof3JHG57jXNJ5j5Tlc-23" value="Data disimpan ke database" style="rounded=0;whiteSpace=wrap;html=1;" parent="1" vertex="1">
          <mxGeometry x="-1315" y="390" width="120" height="60" as="geometry" />
        </mxCell>
        <mxCell id="cEof3JHG57jXNJ5j5Tlc-27" style="edgeStyle=orthogonalEdgeStyle;rounded=0;orthogonalLoop=1;jettySize=auto;html=1;exitX=0.5;exitY=0;exitDx=0;exitDy=0;entryX=1;entryY=0.5;entryDx=0;entryDy=0;" parent="1" source="cEof3JHG57jXNJ5j5Tlc-25" target="cEof3JHG57jXNJ5j5Tlc-19" edge="1">
          <mxGeometry relative="1" as="geometry">
            <Array as="points">
              <mxPoint x="-1000" y="190" />
            </Array>
          </mxGeometry>
        </mxCell>
        <mxCell id="cEof3JHG57jXNJ5j5Tlc-25" value="Menampilkan pesan error" style="shape=parallelogram;perimeter=parallelogramPerimeter;whiteSpace=wrap;html=1;fixedSize=1;" parent="1" vertex="1">
          <mxGeometry x="-1105" y="275" width="210" height="60" as="geometry" />
        </mxCell>
        <mxCell id="cEof3JHG57jXNJ5j5Tlc-31" style="edgeStyle=orthogonalEdgeStyle;rounded=0;orthogonalLoop=1;jettySize=auto;html=1;exitX=0.5;exitY=1;exitDx=0;exitDy=0;" parent="1" source="cEof3JHG57jXNJ5j5Tlc-28" target="cEof3JHG57jXNJ5j5Tlc-30" edge="1">
          <mxGeometry relative="1" as="geometry" />
        </mxCell>
        <mxCell id="cEof3JHG57jXNJ5j5Tlc-28" value="Menampilkan pesan sukses" style="shape=parallelogram;perimeter=parallelogramPerimeter;whiteSpace=wrap;html=1;fixedSize=1;" parent="1" vertex="1">
          <mxGeometry x="-1360" y="495" width="210" height="60" as="geometry" />
        </mxCell>
        <mxCell id="cEof3JHG57jXNJ5j5Tlc-30" value="End" style="ellipse;whiteSpace=wrap;html=1;" parent="1" vertex="1">
          <mxGeometry x="-1305" y="600" width="100" height="50" as="geometry" />
        </mxCell>
        <mxCell id="cEof3JHG57jXNJ5j5Tlc-32" style="edgeStyle=orthogonalEdgeStyle;rounded=0;orthogonalLoop=1;jettySize=auto;html=1;exitX=0.5;exitY=1;exitDx=0;exitDy=0;entryX=0.5;entryY=0;entryDx=0;entryDy=0;" parent="1" source="cEof3JHG57jXNJ5j5Tlc-33" target="cEof3JHG57jXNJ5j5Tlc-35" edge="1">
          <mxGeometry relative="1" as="geometry" />
        </mxCell>
        <mxCell id="cEof3JHG57jXNJ5j5Tlc-33" value="Start" style="ellipse;whiteSpace=wrap;html=1;" parent="1" vertex="1">
          <mxGeometry x="-1305" y="750" width="100" height="50" as="geometry" />
        </mxCell>
        <mxCell id="cEof3JHG57jXNJ5j5Tlc-34" style="edgeStyle=orthogonalEdgeStyle;rounded=0;orthogonalLoop=1;jettySize=auto;html=1;exitX=0.5;exitY=1;exitDx=0;exitDy=0;entryX=0.5;entryY=0;entryDx=0;entryDy=0;" parent="1" source="cEof3JHG57jXNJ5j5Tlc-35" target="cEof3JHG57jXNJ5j5Tlc-38" edge="1">
          <mxGeometry relative="1" as="geometry" />
        </mxCell>
        <mxCell id="cEof3JHG57jXNJ5j5Tlc-35" value="Input Data Pegawai" style="shape=parallelogram;perimeter=parallelogramPerimeter;whiteSpace=wrap;html=1;fixedSize=1;" parent="1" vertex="1">
          <mxGeometry x="-1360" y="845" width="210" height="60" as="geometry" />
        </mxCell>
        <mxCell id="cEof3JHG57jXNJ5j5Tlc-36" style="edgeStyle=orthogonalEdgeStyle;rounded=0;orthogonalLoop=1;jettySize=auto;html=1;exitX=0.5;exitY=1;exitDx=0;exitDy=0;entryX=0.5;entryY=0;entryDx=0;entryDy=0;" parent="1" source="cEof3JHG57jXNJ5j5Tlc-38" target="cEof3JHG57jXNJ5j5Tlc-40" edge="1">
          <mxGeometry relative="1" as="geometry" />
        </mxCell>
        <mxCell id="cEof3JHG57jXNJ5j5Tlc-37" style="edgeStyle=orthogonalEdgeStyle;rounded=0;orthogonalLoop=1;jettySize=auto;html=1;exitX=1;exitY=0.5;exitDx=0;exitDy=0;entryX=0;entryY=0.5;entryDx=0;entryDy=0;" parent="1" source="cEof3JHG57jXNJ5j5Tlc-38" target="cEof3JHG57jXNJ5j5Tlc-42" edge="1">
          <mxGeometry relative="1" as="geometry" />
        </mxCell>
        <mxCell id="cEof3JHG57jXNJ5j5Tlc-38" value="Data valid?" style="rhombus;whiteSpace=wrap;html=1;" parent="1" vertex="1">
          <mxGeometry x="-1305" y="950" width="100" height="80" as="geometry" />
        </mxCell>
        <mxCell id="cEof3JHG57jXNJ5j5Tlc-39" style="edgeStyle=orthogonalEdgeStyle;rounded=0;orthogonalLoop=1;jettySize=auto;html=1;exitX=0.5;exitY=1;exitDx=0;exitDy=0;entryX=0.5;entryY=0;entryDx=0;entryDy=0;" parent="1" source="cEof3JHG57jXNJ5j5Tlc-40" target="cEof3JHG57jXNJ5j5Tlc-44" edge="1">
          <mxGeometry relative="1" as="geometry" />
        </mxCell>
        <mxCell id="cEof3JHG57jXNJ5j5Tlc-40" value="Data disimpan ke database" style="rounded=0;whiteSpace=wrap;html=1;" parent="1" vertex="1">
          <mxGeometry x="-1315" y="1075" width="120" height="60" as="geometry" />
        </mxCell>
        <mxCell id="cEof3JHG57jXNJ5j5Tlc-41" style="edgeStyle=orthogonalEdgeStyle;rounded=0;orthogonalLoop=1;jettySize=auto;html=1;exitX=0.5;exitY=0;exitDx=0;exitDy=0;entryX=1;entryY=0.5;entryDx=0;entryDy=0;" parent="1" source="cEof3JHG57jXNJ5j5Tlc-42" target="cEof3JHG57jXNJ5j5Tlc-35" edge="1">
          <mxGeometry relative="1" as="geometry">
            <Array as="points">
              <mxPoint x="-1000" y="875" />
            </Array>
          </mxGeometry>
        </mxCell>
        <mxCell id="cEof3JHG57jXNJ5j5Tlc-42" value="Menampilkan pesan error" style="shape=parallelogram;perimeter=parallelogramPerimeter;whiteSpace=wrap;html=1;fixedSize=1;" parent="1" vertex="1">
          <mxGeometry x="-1105" y="960" width="210" height="60" as="geometry" />
        </mxCell>
        <mxCell id="cEof3JHG57jXNJ5j5Tlc-43" style="edgeStyle=orthogonalEdgeStyle;rounded=0;orthogonalLoop=1;jettySize=auto;html=1;exitX=0.5;exitY=1;exitDx=0;exitDy=0;" parent="1" source="cEof3JHG57jXNJ5j5Tlc-44" target="cEof3JHG57jXNJ5j5Tlc-45" edge="1">
          <mxGeometry relative="1" as="geometry" />
        </mxCell>
        <mxCell id="cEof3JHG57jXNJ5j5Tlc-44" value="Menampilkan pesan sukses" style="shape=parallelogram;perimeter=parallelogramPerimeter;whiteSpace=wrap;html=1;fixedSize=1;" parent="1" vertex="1">
          <mxGeometry x="-1360" y="1180" width="210" height="60" as="geometry" />
        </mxCell>
        <mxCell id="cEof3JHG57jXNJ5j5Tlc-45" value="End" style="ellipse;whiteSpace=wrap;html=1;" parent="1" vertex="1">
          <mxGeometry x="-1305" y="1285" width="100" height="50" as="geometry" />
        </mxCell>
        <mxCell id="cEof3JHG57jXNJ5j5Tlc-46" style="edgeStyle=orthogonalEdgeStyle;rounded=0;orthogonalLoop=1;jettySize=auto;html=1;exitX=0.5;exitY=1;exitDx=0;exitDy=0;entryX=0.5;entryY=0;entryDx=0;entryDy=0;" parent="1" source="cEof3JHG57jXNJ5j5Tlc-47" target="cEof3JHG57jXNJ5j5Tlc-49" edge="1">
          <mxGeometry relative="1" as="geometry" />
        </mxCell>
        <mxCell id="cEof3JHG57jXNJ5j5Tlc-47" value="Start" style="ellipse;whiteSpace=wrap;html=1;" parent="1" vertex="1">
          <mxGeometry x="-1855" y="75" width="100" height="50" as="geometry" />
        </mxCell>
        <mxCell id="cEof3JHG57jXNJ5j5Tlc-61" style="edgeStyle=orthogonalEdgeStyle;rounded=0;orthogonalLoop=1;jettySize=auto;html=1;exitX=0.5;exitY=1;exitDx=0;exitDy=0;entryX=0.5;entryY=0;entryDx=0;entryDy=0;" parent="1" source="cEof3JHG57jXNJ5j5Tlc-49" target="cEof3JHG57jXNJ5j5Tlc-60" edge="1">
          <mxGeometry relative="1" as="geometry" />
        </mxCell>
        <mxCell id="cEof3JHG57jXNJ5j5Tlc-49" value="Memilih data Absensi" style="shape=parallelogram;perimeter=parallelogramPerimeter;whiteSpace=wrap;html=1;fixedSize=1;" parent="1" vertex="1">
          <mxGeometry x="-1910" y="170" width="210" height="60" as="geometry" />
        </mxCell>
        <mxCell id="cEof3JHG57jXNJ5j5Tlc-50" style="edgeStyle=orthogonalEdgeStyle;rounded=0;orthogonalLoop=1;jettySize=auto;html=1;exitX=0.5;exitY=1;exitDx=0;exitDy=0;entryX=0.5;entryY=0;entryDx=0;entryDy=0;" parent="1" source="cEof3JHG57jXNJ5j5Tlc-52" target="cEof3JHG57jXNJ5j5Tlc-54" edge="1">
          <mxGeometry relative="1" as="geometry" />
        </mxCell>
        <mxCell id="cEof3JHG57jXNJ5j5Tlc-51" style="edgeStyle=orthogonalEdgeStyle;rounded=0;orthogonalLoop=1;jettySize=auto;html=1;exitX=1;exitY=0.5;exitDx=0;exitDy=0;entryX=0;entryY=0.5;entryDx=0;entryDy=0;" parent="1" source="cEof3JHG57jXNJ5j5Tlc-52" target="cEof3JHG57jXNJ5j5Tlc-56" edge="1">
          <mxGeometry relative="1" as="geometry" />
        </mxCell>
        <mxCell id="cEof3JHG57jXNJ5j5Tlc-52" value="Data valid?" style="rhombus;whiteSpace=wrap;html=1;" parent="1" vertex="1">
          <mxGeometry x="-1855" y="505" width="100" height="80" as="geometry" />
        </mxCell>
        <mxCell id="cEof3JHG57jXNJ5j5Tlc-53" style="edgeStyle=orthogonalEdgeStyle;rounded=0;orthogonalLoop=1;jettySize=auto;html=1;exitX=0.5;exitY=1;exitDx=0;exitDy=0;entryX=0.5;entryY=0;entryDx=0;entryDy=0;" parent="1" source="cEof3JHG57jXNJ5j5Tlc-54" target="cEof3JHG57jXNJ5j5Tlc-58" edge="1">
          <mxGeometry relative="1" as="geometry" />
        </mxCell>
        <mxCell id="cEof3JHG57jXNJ5j5Tlc-54" value="Data disimpan ke database" style="rounded=0;whiteSpace=wrap;html=1;" parent="1" vertex="1">
          <mxGeometry x="-1865" y="630" width="120" height="60" as="geometry" />
        </mxCell>
        <mxCell id="cEof3JHG57jXNJ5j5Tlc-55" style="edgeStyle=orthogonalEdgeStyle;rounded=0;orthogonalLoop=1;jettySize=auto;html=1;exitX=0.5;exitY=0;exitDx=0;exitDy=0;" parent="1" source="cEof3JHG57jXNJ5j5Tlc-56" target="cEof3JHG57jXNJ5j5Tlc-62" edge="1">
          <mxGeometry relative="1" as="geometry">
            <mxPoint x="-1680" y="200" as="targetPoint" />
            <Array as="points">
              <mxPoint x="-1550" y="423" />
            </Array>
          </mxGeometry>
        </mxCell>
        <mxCell id="cEof3JHG57jXNJ5j5Tlc-56" value="Menampilkan pesan error" style="shape=parallelogram;perimeter=parallelogramPerimeter;whiteSpace=wrap;html=1;fixedSize=1;" parent="1" vertex="1">
          <mxGeometry x="-1655" y="515" width="210" height="60" as="geometry" />
        </mxCell>
        <mxCell id="cEof3JHG57jXNJ5j5Tlc-57" style="edgeStyle=orthogonalEdgeStyle;rounded=0;orthogonalLoop=1;jettySize=auto;html=1;exitX=0.5;exitY=1;exitDx=0;exitDy=0;" parent="1" source="cEof3JHG57jXNJ5j5Tlc-58" target="cEof3JHG57jXNJ5j5Tlc-59" edge="1">
          <mxGeometry relative="1" as="geometry" />
        </mxCell>
        <mxCell id="cEof3JHG57jXNJ5j5Tlc-58" value="Menampilkan pesan sukses" style="shape=parallelogram;perimeter=parallelogramPerimeter;whiteSpace=wrap;html=1;fixedSize=1;" parent="1" vertex="1">
          <mxGeometry x="-1910" y="735" width="210" height="60" as="geometry" />
        </mxCell>
        <mxCell id="cEof3JHG57jXNJ5j5Tlc-59" value="End" style="ellipse;whiteSpace=wrap;html=1;" parent="1" vertex="1">
          <mxGeometry x="-1855" y="840" width="100" height="50" as="geometry" />
        </mxCell>
        <mxCell id="cEof3JHG57jXNJ5j5Tlc-63" style="edgeStyle=orthogonalEdgeStyle;rounded=0;orthogonalLoop=1;jettySize=auto;html=1;exitX=0.5;exitY=1;exitDx=0;exitDy=0;entryX=0.5;entryY=0;entryDx=0;entryDy=0;" parent="1" source="cEof3JHG57jXNJ5j5Tlc-60" target="cEof3JHG57jXNJ5j5Tlc-62" edge="1">
          <mxGeometry relative="1" as="geometry" />
        </mxCell>
        <mxCell id="cEof3JHG57jXNJ5j5Tlc-60" value="Menampilkan data asbensi yang &lt;br&gt;dipilih" style="shape=parallelogram;perimeter=parallelogramPerimeter;whiteSpace=wrap;html=1;fixedSize=1;" parent="1" vertex="1">
          <mxGeometry x="-1910" y="280" width="210" height="60" as="geometry" />
        </mxCell>
        <mxCell id="cEof3JHG57jXNJ5j5Tlc-64" style="edgeStyle=orthogonalEdgeStyle;rounded=0;orthogonalLoop=1;jettySize=auto;html=1;exitX=0.5;exitY=1;exitDx=0;exitDy=0;entryX=0.5;entryY=0;entryDx=0;entryDy=0;" parent="1" source="cEof3JHG57jXNJ5j5Tlc-62" target="cEof3JHG57jXNJ5j5Tlc-52" edge="1">
          <mxGeometry relative="1" as="geometry" />
        </mxCell>
        <mxCell id="cEof3JHG57jXNJ5j5Tlc-62" value="Mengubah data yang ditampilkan" style="shape=parallelogram;perimeter=parallelogramPerimeter;whiteSpace=wrap;html=1;fixedSize=1;" parent="1" vertex="1">
          <mxGeometry x="-1910" y="393" width="210" height="60" as="geometry" />
        </mxCell>
        <mxCell id="kHghbOgyVwqgFKvwWH_L-1" value="" style="verticalLabelPosition=bottom;verticalAlign=top;html=1;shape=mxgraph.basic.rect;fillColor2=none;strokeWidth=1;size=20;indent=5;movable=1;resizable=1;rotatable=1;deletable=1;editable=1;locked=0;connectable=1;" vertex="1" parent="1">
          <mxGeometry x="1870" y="152" width="140" height="318" as="geometry" />
        </mxCell>
        <mxCell id="kHghbOgyVwqgFKvwWH_L-2" value="" style="verticalLabelPosition=bottom;verticalAlign=top;html=1;shape=mxgraph.basic.rect;fillColor2=none;strokeWidth=1;size=20;indent=5;movable=1;resizable=1;rotatable=1;deletable=1;editable=1;locked=0;connectable=1;" vertex="1" parent="1">
          <mxGeometry x="2010" y="152" width="290" height="318" as="geometry" />
        </mxCell>
        <mxCell id="kHghbOgyVwqgFKvwWH_L-3" value="&lt;font style=&quot;font-size: 12px;&quot;&gt;Pegawai&lt;/font&gt;" style="text;strokeColor=none;fillColor=none;html=1;fontSize=24;fontStyle=1;verticalAlign=middle;align=center;" vertex="1" parent="1">
          <mxGeometry x="1890" y="146" width="100" height="40" as="geometry" />
        </mxCell>
        <mxCell id="kHghbOgyVwqgFKvwWH_L-4" value="&lt;font style=&quot;font-size: 12px;&quot;&gt;Sistem&lt;/font&gt;" style="text;strokeColor=none;fillColor=none;html=1;fontSize=24;fontStyle=1;verticalAlign=middle;align=center;" vertex="1" parent="1">
          <mxGeometry x="2100.25" y="156" width="100" height="30" as="geometry" />
        </mxCell>
        <mxCell id="kHghbOgyVwqgFKvwWH_L-5" value="&lt;p style=&quot;white-space-collapse: preserve;&quot; dir=&quot;auto&quot;&gt;&lt;font style=&quot;font-size: 10px;&quot;&gt;Absensi Pulang&lt;/font&gt;&lt;/p&gt;" style="rounded=1;whiteSpace=wrap;html=1;" vertex="1" parent="1">
          <mxGeometry x="1900" y="250" width="80" height="30" as="geometry" />
        </mxCell>
        <mxCell id="kHghbOgyVwqgFKvwWH_L-9" value="" style="ellipse;whiteSpace=wrap;html=1;aspect=fixed;gradientColor=none;fillColor=#000000;fillStyle=solid;gradientDirection=north;" vertex="1" parent="1">
          <mxGeometry x="1930" y="200" width="20" height="20" as="geometry" />
        </mxCell>
        <mxCell id="kHghbOgyVwqgFKvwWH_L-10" style="edgeStyle=none;curved=1;rounded=0;orthogonalLoop=1;jettySize=auto;html=1;exitX=0.5;exitY=1;exitDx=0;exitDy=0;entryX=0.5;entryY=0;entryDx=0;entryDy=0;fontSize=12;startSize=8;endSize=8;endArrow=open;endFill=0;strokeColor=light-dark(#404040, #ededed);" edge="1" parent="1">
          <mxGeometry relative="1" as="geometry">
            <mxPoint x="1939.83" y="220" as="sourcePoint" />
            <mxPoint x="1939.83" y="250" as="targetPoint" />
          </mxGeometry>
        </mxCell>
        <mxCell id="kHghbOgyVwqgFKvwWH_L-85" style="edgeStyle=orthogonalEdgeStyle;rounded=0;orthogonalLoop=1;jettySize=auto;html=1;exitX=1;exitY=0.5;exitDx=0;exitDy=0;entryX=0;entryY=0.5;entryDx=0;entryDy=0;" edge="1" parent="1" source="kHghbOgyVwqgFKvwWH_L-49" target="kHghbOgyVwqgFKvwWH_L-75">
          <mxGeometry relative="1" as="geometry" />
        </mxCell>
        <mxCell id="kHghbOgyVwqgFKvwWH_L-49" value="&lt;p style=&quot;white-space-collapse: preserve;&quot; dir=&quot;auto&quot;&gt;&lt;font style=&quot;font-size: 10px;&quot;&gt;Mengisi jam dan kegiatan&lt;/font&gt;&lt;/p&gt;" style="rounded=1;whiteSpace=wrap;html=1;" vertex="1" parent="1">
          <mxGeometry x="1900" y="310" width="80" height="30" as="geometry" />
        </mxCell>
        <mxCell id="kHghbOgyVwqgFKvwWH_L-50" style="edgeStyle=none;curved=1;rounded=0;orthogonalLoop=1;jettySize=auto;html=1;exitX=0.5;exitY=1;exitDx=0;exitDy=0;entryX=0.5;entryY=0;entryDx=0;entryDy=0;fontSize=12;startSize=8;endSize=8;endArrow=open;endFill=0;strokeColor=light-dark(#404040, #ededed);" edge="1" parent="1">
          <mxGeometry relative="1" as="geometry">
            <mxPoint x="1939.8" y="280" as="sourcePoint" />
            <mxPoint x="1939.8" y="310" as="targetPoint" />
          </mxGeometry>
        </mxCell>
        <mxCell id="kHghbOgyVwqgFKvwWH_L-74" value="&lt;p style=&quot;white-space-collapse: preserve;&quot; dir=&quot;auto&quot;&gt;&lt;span style=&quot;font-size: 10px;&quot;&gt;Simpan check-out&lt;/span&gt;&lt;/p&gt;" style="rounded=1;whiteSpace=wrap;html=1;" vertex="1" parent="1">
          <mxGeometry x="2069.75" y="410" width="80" height="30" as="geometry" />
        </mxCell>
        <mxCell id="kHghbOgyVwqgFKvwWH_L-75" value="&lt;p style=&quot;white-space-collapse: preserve;&quot; dir=&quot;auto&quot;&gt;&lt;span style=&quot;font-size: 10px;&quot;&gt;Validasi Inputan&lt;br/&gt;(Sesuai/Tidak)&lt;/span&gt;&lt;/p&gt;" style="rounded=1;whiteSpace=wrap;html=1;" vertex="1" parent="1">
          <mxGeometry x="2110.25" y="310" width="80" height="30" as="geometry" />
        </mxCell>
        <mxCell id="kHghbOgyVwqgFKvwWH_L-76" style="edgeStyle=none;curved=1;rounded=0;orthogonalLoop=1;jettySize=auto;html=1;exitX=0.5;exitY=1;exitDx=0;exitDy=0;entryX=0.5;entryY=0;entryDx=0;entryDy=0;fontSize=12;startSize=8;endSize=8;endArrow=open;endFill=0;strokeColor=light-dark(#404040, #ededed);" edge="1" parent="1">
          <mxGeometry relative="1" as="geometry">
            <mxPoint x="2149.75" y="340" as="sourcePoint" />
            <mxPoint x="2149.75" y="370" as="targetPoint" />
          </mxGeometry>
        </mxCell>
        <mxCell id="kHghbOgyVwqgFKvwWH_L-77" value="" style="rhombus;whiteSpace=wrap;html=1;" vertex="1" parent="1">
          <mxGeometry x="2140.25" y="370" width="20" height="20" as="geometry" />
        </mxCell>
        <mxCell id="kHghbOgyVwqgFKvwWH_L-78" value="&lt;p style=&quot;white-space-collapse: preserve;&quot; dir=&quot;auto&quot;&gt;&lt;font style=&quot;font-size: 10px;&quot;&gt;Menampilkan pesan error&lt;/font&gt;&lt;/p&gt;" style="rounded=1;whiteSpace=wrap;html=1;" vertex="1" parent="1">
          <mxGeometry x="2160.25" y="410" width="80" height="30" as="geometry" />
        </mxCell>
        <mxCell id="kHghbOgyVwqgFKvwWH_L-79" value="" style="endArrow=none;html=1;rounded=0;fontSize=12;startSize=8;endSize=8;curved=1;entryX=0;entryY=0.5;entryDx=0;entryDy=0;" edge="1" parent="1">
          <mxGeometry width="50" height="50" relative="1" as="geometry">
            <mxPoint x="2160.25" y="380" as="sourcePoint" />
            <mxPoint x="2200.75" y="380" as="targetPoint" />
          </mxGeometry>
        </mxCell>
        <mxCell id="kHghbOgyVwqgFKvwWH_L-80" value="" style="endArrow=none;html=1;rounded=0;fontSize=12;startSize=8;endSize=8;curved=1;entryX=0;entryY=0.5;entryDx=0;entryDy=0;" edge="1" parent="1">
          <mxGeometry width="50" height="50" relative="1" as="geometry">
            <mxPoint x="2109.75" y="380" as="sourcePoint" />
            <mxPoint x="2140.25" y="380" as="targetPoint" />
          </mxGeometry>
        </mxCell>
        <mxCell id="kHghbOgyVwqgFKvwWH_L-81" style="edgeStyle=none;curved=1;rounded=0;orthogonalLoop=1;jettySize=auto;html=1;exitX=0.5;exitY=1;exitDx=0;exitDy=0;entryX=0.5;entryY=0;entryDx=0;entryDy=0;fontSize=12;startSize=8;endSize=8;endArrow=open;endFill=0;strokeColor=light-dark(#404040, #ededed);" edge="1" parent="1">
          <mxGeometry relative="1" as="geometry">
            <mxPoint x="2110.13" y="380" as="sourcePoint" />
            <mxPoint x="2110.13" y="410" as="targetPoint" />
          </mxGeometry>
        </mxCell>
        <mxCell id="kHghbOgyVwqgFKvwWH_L-82" value="yes" style="edgeLabel;html=1;align=center;verticalAlign=middle;resizable=0;points=[];fontSize=12;" vertex="1" connectable="0" parent="kHghbOgyVwqgFKvwWH_L-81">
          <mxGeometry x="-0.4175" relative="1" as="geometry">
            <mxPoint as="offset" />
          </mxGeometry>
        </mxCell>
        <mxCell id="kHghbOgyVwqgFKvwWH_L-83" style="edgeStyle=none;curved=1;rounded=0;orthogonalLoop=1;jettySize=auto;html=1;exitX=0.5;exitY=1;exitDx=0;exitDy=0;entryX=0.5;entryY=0;entryDx=0;entryDy=0;fontSize=12;startSize=8;endSize=8;endArrow=open;endFill=0;strokeColor=light-dark(#404040, #ededed);" edge="1" parent="1">
          <mxGeometry relative="1" as="geometry">
            <mxPoint x="2200.17" y="380" as="sourcePoint" />
            <mxPoint x="2200.17" y="410" as="targetPoint" />
          </mxGeometry>
        </mxCell>
        <mxCell id="kHghbOgyVwqgFKvwWH_L-84" value="no" style="edgeLabel;html=1;align=center;verticalAlign=middle;resizable=0;points=[];fontSize=12;" vertex="1" connectable="0" parent="kHghbOgyVwqgFKvwWH_L-83">
          <mxGeometry x="-0.2762" y="-1" relative="1" as="geometry">
            <mxPoint as="offset" />
          </mxGeometry>
        </mxCell>
        <mxCell id="kHghbOgyVwqgFKvwWH_L-107" value="" style="verticalLabelPosition=bottom;verticalAlign=top;html=1;shape=mxgraph.basic.rect;fillColor2=none;strokeWidth=1;size=20;indent=5;movable=1;resizable=1;rotatable=1;deletable=1;editable=1;locked=0;connectable=1;" vertex="1" parent="1">
          <mxGeometry x="2390" y="155" width="140" height="165" as="geometry" />
        </mxCell>
        <mxCell id="kHghbOgyVwqgFKvwWH_L-108" value="" style="verticalLabelPosition=bottom;verticalAlign=top;html=1;shape=mxgraph.basic.rect;fillColor2=none;strokeWidth=1;size=20;indent=5;movable=1;resizable=1;rotatable=1;deletable=1;editable=1;locked=0;connectable=1;" vertex="1" parent="1">
          <mxGeometry x="2530" y="155" width="290" height="165" as="geometry" />
        </mxCell>
        <mxCell id="kHghbOgyVwqgFKvwWH_L-109" value="&lt;font style=&quot;font-size: 12px;&quot;&gt;Pegawai&lt;/font&gt;" style="text;strokeColor=none;fillColor=none;html=1;fontSize=24;fontStyle=1;verticalAlign=middle;align=center;" vertex="1" parent="1">
          <mxGeometry x="2410" y="149" width="100" height="40" as="geometry" />
        </mxCell>
        <mxCell id="kHghbOgyVwqgFKvwWH_L-110" value="&lt;font style=&quot;font-size: 12px;&quot;&gt;Sistem&lt;/font&gt;" style="text;strokeColor=none;fillColor=none;html=1;fontSize=24;fontStyle=1;verticalAlign=middle;align=center;" vertex="1" parent="1">
          <mxGeometry x="2620.25" y="159" width="100" height="30" as="geometry" />
        </mxCell>
        <mxCell id="kHghbOgyVwqgFKvwWH_L-131" style="edgeStyle=orthogonalEdgeStyle;rounded=0;orthogonalLoop=1;jettySize=auto;html=1;exitX=1;exitY=0.5;exitDx=0;exitDy=0;entryX=0;entryY=0.5;entryDx=0;entryDy=0;" edge="1" parent="1" source="kHghbOgyVwqgFKvwWH_L-111" target="kHghbOgyVwqgFKvwWH_L-128">
          <mxGeometry relative="1" as="geometry" />
        </mxCell>
        <mxCell id="kHghbOgyVwqgFKvwWH_L-111" value="&lt;p style=&quot;white-space-collapse: preserve;&quot; dir=&quot;auto&quot;&gt;&lt;font style=&quot;font-size: 10px;&quot;&gt;Lihat Riwayat&lt;/font&gt;&lt;/p&gt;" style="rounded=1;whiteSpace=wrap;html=1;" vertex="1" parent="1">
          <mxGeometry x="2420" y="253" width="80" height="30" as="geometry" />
        </mxCell>
        <mxCell id="kHghbOgyVwqgFKvwWH_L-112" value="" style="ellipse;whiteSpace=wrap;html=1;aspect=fixed;gradientColor=none;fillColor=#000000;fillStyle=solid;gradientDirection=north;" vertex="1" parent="1">
          <mxGeometry x="2450" y="203" width="20" height="20" as="geometry" />
        </mxCell>
        <mxCell id="kHghbOgyVwqgFKvwWH_L-113" style="edgeStyle=none;curved=1;rounded=0;orthogonalLoop=1;jettySize=auto;html=1;exitX=0.5;exitY=1;exitDx=0;exitDy=0;entryX=0.5;entryY=0;entryDx=0;entryDy=0;fontSize=12;startSize=8;endSize=8;endArrow=open;endFill=0;strokeColor=light-dark(#404040, #ededed);" edge="1" parent="1">
          <mxGeometry relative="1" as="geometry">
            <mxPoint x="2459.83" y="223" as="sourcePoint" />
            <mxPoint x="2459.83" y="253" as="targetPoint" />
          </mxGeometry>
        </mxCell>
        <mxCell id="kHghbOgyVwqgFKvwWH_L-128" value="&lt;p style=&quot;white-space-collapse: preserve;&quot; dir=&quot;auto&quot;&gt;&lt;span style=&quot;font-size: 10px;&quot;&gt;Menampilkan data&lt;/span&gt;&lt;/p&gt;" style="rounded=1;whiteSpace=wrap;html=1;" vertex="1" parent="1">
          <mxGeometry x="2630.25" y="253" width="80" height="30" as="geometry" />
        </mxCell>
        <mxCell id="kHghbOgyVwqgFKvwWH_L-133" value="" style="verticalLabelPosition=bottom;verticalAlign=top;html=1;shape=mxgraph.basic.rect;fillColor2=none;strokeWidth=1;size=20;indent=5;movable=1;resizable=1;rotatable=1;deletable=1;editable=1;locked=0;connectable=1;" vertex="1" parent="1">
          <mxGeometry x="2390" y="376" width="140" height="214" as="geometry" />
        </mxCell>
        <mxCell id="kHghbOgyVwqgFKvwWH_L-134" value="" style="verticalLabelPosition=bottom;verticalAlign=top;html=1;shape=mxgraph.basic.rect;fillColor2=none;strokeWidth=1;size=20;indent=5;movable=1;resizable=1;rotatable=1;deletable=1;editable=1;locked=0;connectable=1;" vertex="1" parent="1">
          <mxGeometry x="2530" y="376" width="290" height="214" as="geometry" />
        </mxCell>
        <mxCell id="kHghbOgyVwqgFKvwWH_L-135" value="&lt;font style=&quot;font-size: 12px;&quot;&gt;Pegawai&lt;/font&gt;" style="text;strokeColor=none;fillColor=none;html=1;fontSize=24;fontStyle=1;verticalAlign=middle;align=center;" vertex="1" parent="1">
          <mxGeometry x="2410" y="370" width="100" height="40" as="geometry" />
        </mxCell>
        <mxCell id="kHghbOgyVwqgFKvwWH_L-136" value="&lt;font style=&quot;font-size: 12px;&quot;&gt;Sistem&lt;/font&gt;" style="text;strokeColor=none;fillColor=none;html=1;fontSize=24;fontStyle=1;verticalAlign=middle;align=center;" vertex="1" parent="1">
          <mxGeometry x="2620.25" y="380" width="100" height="30" as="geometry" />
        </mxCell>
        <mxCell id="kHghbOgyVwqgFKvwWH_L-137" style="edgeStyle=orthogonalEdgeStyle;rounded=0;orthogonalLoop=1;jettySize=auto;html=1;exitX=1;exitY=0.5;exitDx=0;exitDy=0;entryX=0;entryY=0.5;entryDx=0;entryDy=0;" edge="1" source="kHghbOgyVwqgFKvwWH_L-138" target="kHghbOgyVwqgFKvwWH_L-141" parent="1">
          <mxGeometry relative="1" as="geometry" />
        </mxCell>
        <mxCell id="kHghbOgyVwqgFKvwWH_L-138" value="&lt;p style=&quot;white-space-collapse: preserve;&quot; dir=&quot;auto&quot;&gt;&lt;font style=&quot;font-size: 10px;&quot;&gt;Unduh riwayat&lt;/font&gt;&lt;/p&gt;" style="rounded=1;whiteSpace=wrap;html=1;" vertex="1" parent="1">
          <mxGeometry x="2420" y="474" width="80" height="30" as="geometry" />
        </mxCell>
        <mxCell id="kHghbOgyVwqgFKvwWH_L-139" value="" style="ellipse;whiteSpace=wrap;html=1;aspect=fixed;gradientColor=none;fillColor=#000000;fillStyle=solid;gradientDirection=north;" vertex="1" parent="1">
          <mxGeometry x="2450" y="424" width="20" height="20" as="geometry" />
        </mxCell>
        <mxCell id="kHghbOgyVwqgFKvwWH_L-140" style="edgeStyle=none;curved=1;rounded=0;orthogonalLoop=1;jettySize=auto;html=1;exitX=0.5;exitY=1;exitDx=0;exitDy=0;entryX=0.5;entryY=0;entryDx=0;entryDy=0;fontSize=12;startSize=8;endSize=8;endArrow=open;endFill=0;strokeColor=light-dark(#404040, #ededed);" edge="1" parent="1">
          <mxGeometry relative="1" as="geometry">
            <mxPoint x="2459.83" y="444" as="sourcePoint" />
            <mxPoint x="2459.83" y="474" as="targetPoint" />
          </mxGeometry>
        </mxCell>
        <mxCell id="kHghbOgyVwqgFKvwWH_L-143" style="edgeStyle=orthogonalEdgeStyle;rounded=0;orthogonalLoop=1;jettySize=auto;html=1;exitX=0.5;exitY=1;exitDx=0;exitDy=0;entryX=0.5;entryY=0;entryDx=0;entryDy=0;" edge="1" parent="1" source="kHghbOgyVwqgFKvwWH_L-141" target="kHghbOgyVwqgFKvwWH_L-142">
          <mxGeometry relative="1" as="geometry" />
        </mxCell>
        <mxCell id="kHghbOgyVwqgFKvwWH_L-141" value="&lt;p style=&quot;white-space-collapse: preserve;&quot; dir=&quot;auto&quot;&gt;&lt;span style=&quot;font-size: 10px;&quot;&gt;Membuat PDF&lt;/span&gt;&lt;/p&gt;" style="rounded=1;whiteSpace=wrap;html=1;" vertex="1" parent="1">
          <mxGeometry x="2630.25" y="474" width="80" height="30" as="geometry" />
        </mxCell>
        <mxCell id="kHghbOgyVwqgFKvwWH_L-142" value="&lt;p style=&quot;white-space-collapse: preserve;&quot; dir=&quot;auto&quot;&gt;&lt;span style=&quot;font-size: 10px;&quot;&gt;Mengirim PDF&lt;/span&gt;&lt;/p&gt;" style="rounded=1;whiteSpace=wrap;html=1;" vertex="1" parent="1">
          <mxGeometry x="2630.25" y="550" width="80" height="30" as="geometry" />
        </mxCell>
        <mxCell id="kHghbOgyVwqgFKvwWH_L-144" value="" style="verticalLabelPosition=bottom;verticalAlign=top;html=1;shape=mxgraph.basic.rect;fillColor2=none;strokeWidth=1;size=20;indent=5;movable=1;resizable=1;rotatable=1;deletable=1;editable=1;locked=0;connectable=1;" vertex="1" parent="1">
          <mxGeometry x="1894.75" y="766" width="140" height="264" as="geometry" />
        </mxCell>
        <mxCell id="kHghbOgyVwqgFKvwWH_L-145" value="" style="verticalLabelPosition=bottom;verticalAlign=top;html=1;shape=mxgraph.basic.rect;fillColor2=none;strokeWidth=1;size=20;indent=5;movable=1;resizable=1;rotatable=1;deletable=1;editable=1;locked=0;connectable=1;" vertex="1" parent="1">
          <mxGeometry x="2034.75" y="766" width="290" height="264" as="geometry" />
        </mxCell>
        <mxCell id="kHghbOgyVwqgFKvwWH_L-146" value="&lt;font style=&quot;font-size: 12px;&quot;&gt;Admin&lt;/font&gt;" style="text;strokeColor=none;fillColor=none;html=1;fontSize=24;fontStyle=1;verticalAlign=middle;align=center;" vertex="1" parent="1">
          <mxGeometry x="1914.75" y="760" width="100" height="40" as="geometry" />
        </mxCell>
        <mxCell id="kHghbOgyVwqgFKvwWH_L-147" value="&lt;font style=&quot;font-size: 12px;&quot;&gt;Sistem&lt;/font&gt;" style="text;strokeColor=none;fillColor=none;html=1;fontSize=24;fontStyle=1;verticalAlign=middle;align=center;" vertex="1" parent="1">
          <mxGeometry x="2125" y="770" width="100" height="30" as="geometry" />
        </mxCell>
        <mxCell id="kHghbOgyVwqgFKvwWH_L-148" value="&lt;p style=&quot;white-space-collapse: preserve;&quot; dir=&quot;auto&quot;&gt;&lt;font style=&quot;font-size: 10px;&quot;&gt;Mendaftarkan akun pegawai&lt;/font&gt;&lt;/p&gt;" style="rounded=1;whiteSpace=wrap;html=1;" vertex="1" parent="1">
          <mxGeometry x="1924.75" y="864" width="80" height="30" as="geometry" />
        </mxCell>
        <mxCell id="kHghbOgyVwqgFKvwWH_L-149" style="edgeStyle=none;curved=1;rounded=0;orthogonalLoop=1;jettySize=auto;html=1;exitX=1;exitY=0.5;exitDx=0;exitDy=0;fontSize=12;startSize=8;endSize=8;" edge="1" parent="1">
          <mxGeometry relative="1" as="geometry">
            <mxPoint x="2004.75" y="878.75" as="sourcePoint" />
            <mxPoint x="2135.25" y="878.75" as="targetPoint" />
          </mxGeometry>
        </mxCell>
        <mxCell id="kHghbOgyVwqgFKvwWH_L-152" value="" style="ellipse;whiteSpace=wrap;html=1;aspect=fixed;gradientColor=none;fillColor=#000000;fillStyle=solid;gradientDirection=north;" vertex="1" parent="1">
          <mxGeometry x="1954.75" y="814" width="20" height="20" as="geometry" />
        </mxCell>
        <mxCell id="kHghbOgyVwqgFKvwWH_L-153" style="edgeStyle=none;curved=1;rounded=0;orthogonalLoop=1;jettySize=auto;html=1;exitX=0.5;exitY=1;exitDx=0;exitDy=0;entryX=0.5;entryY=0;entryDx=0;entryDy=0;fontSize=12;startSize=8;endSize=8;endArrow=open;endFill=0;strokeColor=light-dark(#404040, #ededed);" edge="1" parent="1">
          <mxGeometry relative="1" as="geometry">
            <mxPoint x="1964.58" y="834" as="sourcePoint" />
            <mxPoint x="1964.58" y="864" as="targetPoint" />
          </mxGeometry>
        </mxCell>
        <mxCell id="kHghbOgyVwqgFKvwWH_L-155" value="&lt;p style=&quot;white-space-collapse: preserve;&quot; dir=&quot;auto&quot;&gt;&lt;span style=&quot;font-size: 10px;&quot;&gt;Simpan User&lt;/span&gt;&lt;/p&gt;" style="rounded=1;whiteSpace=wrap;html=1;" vertex="1" parent="1">
          <mxGeometry x="2094.75" y="964" width="80" height="30" as="geometry" />
        </mxCell>
        <mxCell id="kHghbOgyVwqgFKvwWH_L-156" value="&lt;p style=&quot;white-space-collapse: preserve;&quot; dir=&quot;auto&quot;&gt;&lt;span style=&quot;font-size: 10px;&quot;&gt;Validasi Inputan&lt;br/&gt;(Sesuai/Tidak)&lt;/span&gt;&lt;/p&gt;" style="rounded=1;whiteSpace=wrap;html=1;" vertex="1" parent="1">
          <mxGeometry x="2135.25" y="864" width="80" height="30" as="geometry" />
        </mxCell>
        <mxCell id="kHghbOgyVwqgFKvwWH_L-157" style="edgeStyle=none;curved=1;rounded=0;orthogonalLoop=1;jettySize=auto;html=1;exitX=0.5;exitY=1;exitDx=0;exitDy=0;entryX=0.5;entryY=0;entryDx=0;entryDy=0;fontSize=12;startSize=8;endSize=8;endArrow=open;endFill=0;strokeColor=light-dark(#404040, #ededed);" edge="1" parent="1">
          <mxGeometry relative="1" as="geometry">
            <mxPoint x="2174.75" y="894" as="sourcePoint" />
            <mxPoint x="2174.75" y="924" as="targetPoint" />
          </mxGeometry>
        </mxCell>
        <mxCell id="kHghbOgyVwqgFKvwWH_L-158" value="" style="rhombus;whiteSpace=wrap;html=1;" vertex="1" parent="1">
          <mxGeometry x="2165.25" y="924" width="20" height="20" as="geometry" />
        </mxCell>
        <mxCell id="kHghbOgyVwqgFKvwWH_L-159" value="&lt;p style=&quot;white-space-collapse: preserve;&quot; dir=&quot;auto&quot;&gt;&lt;font style=&quot;font-size: 10px;&quot;&gt;Menampilkan pesan error&lt;/font&gt;&lt;/p&gt;" style="rounded=1;whiteSpace=wrap;html=1;" vertex="1" parent="1">
          <mxGeometry x="2185.25" y="964" width="80" height="30" as="geometry" />
        </mxCell>
        <mxCell id="kHghbOgyVwqgFKvwWH_L-160" value="" style="endArrow=none;html=1;rounded=0;fontSize=12;startSize=8;endSize=8;curved=1;entryX=0;entryY=0.5;entryDx=0;entryDy=0;" edge="1" parent="1">
          <mxGeometry width="50" height="50" relative="1" as="geometry">
            <mxPoint x="2185.25" y="934" as="sourcePoint" />
            <mxPoint x="2225.75" y="934" as="targetPoint" />
          </mxGeometry>
        </mxCell>
        <mxCell id="kHghbOgyVwqgFKvwWH_L-161" value="" style="endArrow=none;html=1;rounded=0;fontSize=12;startSize=8;endSize=8;curved=1;entryX=0;entryY=0.5;entryDx=0;entryDy=0;" edge="1" parent="1">
          <mxGeometry width="50" height="50" relative="1" as="geometry">
            <mxPoint x="2134.75" y="934" as="sourcePoint" />
            <mxPoint x="2165.25" y="934" as="targetPoint" />
          </mxGeometry>
        </mxCell>
        <mxCell id="kHghbOgyVwqgFKvwWH_L-162" style="edgeStyle=none;curved=1;rounded=0;orthogonalLoop=1;jettySize=auto;html=1;exitX=0.5;exitY=1;exitDx=0;exitDy=0;entryX=0.5;entryY=0;entryDx=0;entryDy=0;fontSize=12;startSize=8;endSize=8;endArrow=open;endFill=0;strokeColor=light-dark(#404040, #ededed);" edge="1" parent="1">
          <mxGeometry relative="1" as="geometry">
            <mxPoint x="2135.13" y="934" as="sourcePoint" />
            <mxPoint x="2135.13" y="964" as="targetPoint" />
          </mxGeometry>
        </mxCell>
        <mxCell id="kHghbOgyVwqgFKvwWH_L-163" value="yes" style="edgeLabel;html=1;align=center;verticalAlign=middle;resizable=0;points=[];fontSize=12;" vertex="1" connectable="0" parent="kHghbOgyVwqgFKvwWH_L-162">
          <mxGeometry x="-0.4175" relative="1" as="geometry">
            <mxPoint as="offset" />
          </mxGeometry>
        </mxCell>
        <mxCell id="kHghbOgyVwqgFKvwWH_L-164" style="edgeStyle=none;curved=1;rounded=0;orthogonalLoop=1;jettySize=auto;html=1;exitX=0.5;exitY=1;exitDx=0;exitDy=0;entryX=0.5;entryY=0;entryDx=0;entryDy=0;fontSize=12;startSize=8;endSize=8;endArrow=open;endFill=0;strokeColor=light-dark(#404040, #ededed);" edge="1" parent="1">
          <mxGeometry relative="1" as="geometry">
            <mxPoint x="2225.17" y="934" as="sourcePoint" />
            <mxPoint x="2225.17" y="964" as="targetPoint" />
          </mxGeometry>
        </mxCell>
        <mxCell id="kHghbOgyVwqgFKvwWH_L-165" value="no" style="edgeLabel;html=1;align=center;verticalAlign=middle;resizable=0;points=[];fontSize=12;" vertex="1" connectable="0" parent="kHghbOgyVwqgFKvwWH_L-164">
          <mxGeometry x="-0.2762" y="-1" relative="1" as="geometry">
            <mxPoint as="offset" />
          </mxGeometry>
        </mxCell>
        <mxCell id="kHghbOgyVwqgFKvwWH_L-212" value="" style="verticalLabelPosition=bottom;verticalAlign=top;html=1;shape=mxgraph.basic.rect;fillColor2=none;strokeWidth=1;size=20;indent=5;movable=1;resizable=1;rotatable=1;deletable=1;editable=1;locked=0;connectable=1;" vertex="1" parent="1">
          <mxGeometry x="1894.75" y="1094" width="140" height="156" as="geometry" />
        </mxCell>
        <mxCell id="kHghbOgyVwqgFKvwWH_L-213" value="" style="verticalLabelPosition=bottom;verticalAlign=top;html=1;shape=mxgraph.basic.rect;fillColor2=none;strokeWidth=1;size=20;indent=5;movable=1;resizable=1;rotatable=1;deletable=1;editable=1;locked=0;connectable=1;" vertex="1" parent="1">
          <mxGeometry x="2034.75" y="1094" width="290" height="156" as="geometry" />
        </mxCell>
        <mxCell id="kHghbOgyVwqgFKvwWH_L-214" value="&lt;font style=&quot;font-size: 12px;&quot;&gt;Admin&lt;/font&gt;" style="text;strokeColor=none;fillColor=none;html=1;fontSize=24;fontStyle=1;verticalAlign=middle;align=center;" vertex="1" parent="1">
          <mxGeometry x="1914.75" y="1088" width="100" height="40" as="geometry" />
        </mxCell>
        <mxCell id="kHghbOgyVwqgFKvwWH_L-215" value="&lt;font style=&quot;font-size: 12px;&quot;&gt;Sistem&lt;/font&gt;" style="text;strokeColor=none;fillColor=none;html=1;fontSize=24;fontStyle=1;verticalAlign=middle;align=center;" vertex="1" parent="1">
          <mxGeometry x="2125" y="1098" width="100" height="30" as="geometry" />
        </mxCell>
        <mxCell id="kHghbOgyVwqgFKvwWH_L-216" value="&lt;p style=&quot;white-space-collapse: preserve;&quot; dir=&quot;auto&quot;&gt;&lt;font style=&quot;font-size: 10px;&quot;&gt;Lihat daftar pegawai&lt;/font&gt;&lt;/p&gt;" style="rounded=1;whiteSpace=wrap;html=1;" vertex="1" parent="1">
          <mxGeometry x="1924.75" y="1192" width="80" height="30" as="geometry" />
        </mxCell>
        <mxCell id="kHghbOgyVwqgFKvwWH_L-217" style="edgeStyle=none;curved=1;rounded=0;orthogonalLoop=1;jettySize=auto;html=1;exitX=1;exitY=0.5;exitDx=0;exitDy=0;fontSize=12;startSize=8;endSize=8;" edge="1" parent="1">
          <mxGeometry relative="1" as="geometry">
            <mxPoint x="2004.75" y="1206.75" as="sourcePoint" />
            <mxPoint x="2135.25" y="1206.75" as="targetPoint" />
          </mxGeometry>
        </mxCell>
        <mxCell id="kHghbOgyVwqgFKvwWH_L-218" value="" style="ellipse;whiteSpace=wrap;html=1;aspect=fixed;gradientColor=none;fillColor=#000000;fillStyle=solid;gradientDirection=north;" vertex="1" parent="1">
          <mxGeometry x="1954.75" y="1142" width="20" height="20" as="geometry" />
        </mxCell>
        <mxCell id="kHghbOgyVwqgFKvwWH_L-219" style="edgeStyle=none;curved=1;rounded=0;orthogonalLoop=1;jettySize=auto;html=1;exitX=0.5;exitY=1;exitDx=0;exitDy=0;entryX=0.5;entryY=0;entryDx=0;entryDy=0;fontSize=12;startSize=8;endSize=8;endArrow=open;endFill=0;strokeColor=light-dark(#404040, #ededed);" edge="1" parent="1">
          <mxGeometry relative="1" as="geometry">
            <mxPoint x="1964.58" y="1162" as="sourcePoint" />
            <mxPoint x="1964.58" y="1192" as="targetPoint" />
          </mxGeometry>
        </mxCell>
        <mxCell id="kHghbOgyVwqgFKvwWH_L-221" value="&lt;p style=&quot;white-space-collapse: preserve;&quot; dir=&quot;auto&quot;&gt;&lt;span style=&quot;font-size: 10px;&quot;&gt;Menampilkan daftar pegawai&lt;/span&gt;&lt;/p&gt;" style="rounded=1;whiteSpace=wrap;html=1;" vertex="1" parent="1">
          <mxGeometry x="2135.25" y="1192" width="80" height="30" as="geometry" />
        </mxCell>
        <mxCell id="kHghbOgyVwqgFKvwWH_L-231" value="" style="verticalLabelPosition=bottom;verticalAlign=top;html=1;shape=mxgraph.basic.rect;fillColor2=none;strokeWidth=1;size=20;indent=5;movable=1;resizable=1;rotatable=1;deletable=1;editable=1;locked=0;connectable=1;" vertex="1" parent="1">
          <mxGeometry x="2390" y="769" width="140" height="311" as="geometry" />
        </mxCell>
        <mxCell id="kHghbOgyVwqgFKvwWH_L-232" value="" style="verticalLabelPosition=bottom;verticalAlign=top;html=1;shape=mxgraph.basic.rect;fillColor2=none;strokeWidth=1;size=20;indent=5;movable=1;resizable=1;rotatable=1;deletable=1;editable=1;locked=0;connectable=1;" vertex="1" parent="1">
          <mxGeometry x="2530" y="769" width="290" height="311" as="geometry" />
        </mxCell>
        <mxCell id="kHghbOgyVwqgFKvwWH_L-233" value="&lt;font style=&quot;font-size: 12px;&quot;&gt;Admin&lt;/font&gt;" style="text;strokeColor=none;fillColor=none;html=1;fontSize=24;fontStyle=1;verticalAlign=middle;align=center;" vertex="1" parent="1">
          <mxGeometry x="2410" y="763" width="100" height="40" as="geometry" />
        </mxCell>
        <mxCell id="kHghbOgyVwqgFKvwWH_L-234" value="&lt;font style=&quot;font-size: 12px;&quot;&gt;Sistem&lt;/font&gt;" style="text;strokeColor=none;fillColor=none;html=1;fontSize=24;fontStyle=1;verticalAlign=middle;align=center;" vertex="1" parent="1">
          <mxGeometry x="2620.25" y="773" width="100" height="30" as="geometry" />
        </mxCell>
        <mxCell id="kHghbOgyVwqgFKvwWH_L-281" style="edgeStyle=orthogonalEdgeStyle;rounded=0;orthogonalLoop=1;jettySize=auto;html=1;exitX=0.5;exitY=1;exitDx=0;exitDy=0;entryX=0.5;entryY=0;entryDx=0;entryDy=0;" edge="1" parent="1" source="kHghbOgyVwqgFKvwWH_L-235" target="kHghbOgyVwqgFKvwWH_L-267">
          <mxGeometry relative="1" as="geometry" />
        </mxCell>
        <mxCell id="kHghbOgyVwqgFKvwWH_L-235" value="&lt;p style=&quot;white-space-collapse: preserve;&quot; dir=&quot;auto&quot;&gt;&lt;font style=&quot;font-size: 10px;&quot;&gt;Mencari Pegawai&lt;/font&gt;&lt;/p&gt;" style="rounded=1;whiteSpace=wrap;html=1;" vertex="1" parent="1">
          <mxGeometry x="2420" y="867" width="80" height="30" as="geometry" />
        </mxCell>
        <mxCell id="kHghbOgyVwqgFKvwWH_L-237" value="" style="ellipse;whiteSpace=wrap;html=1;aspect=fixed;gradientColor=none;fillColor=#000000;fillStyle=solid;gradientDirection=north;" vertex="1" parent="1">
          <mxGeometry x="2450" y="817" width="20" height="20" as="geometry" />
        </mxCell>
        <mxCell id="kHghbOgyVwqgFKvwWH_L-238" style="edgeStyle=none;curved=1;rounded=0;orthogonalLoop=1;jettySize=auto;html=1;exitX=0.5;exitY=1;exitDx=0;exitDy=0;entryX=0.5;entryY=0;entryDx=0;entryDy=0;fontSize=12;startSize=8;endSize=8;endArrow=open;endFill=0;strokeColor=light-dark(#404040, #ededed);" edge="1" parent="1">
          <mxGeometry relative="1" as="geometry">
            <mxPoint x="2459.83" y="837" as="sourcePoint" />
            <mxPoint x="2459.83" y="867" as="targetPoint" />
          </mxGeometry>
        </mxCell>
        <mxCell id="kHghbOgyVwqgFKvwWH_L-266" style="edgeStyle=none;curved=1;rounded=0;orthogonalLoop=1;jettySize=auto;html=1;exitX=1;exitY=0.5;exitDx=0;exitDy=0;entryX=0;entryY=0.5;entryDx=0;entryDy=0;fontSize=12;startSize=8;endSize=8;endArrow=open;endFill=0;" edge="1" parent="1" source="kHghbOgyVwqgFKvwWH_L-267" target="kHghbOgyVwqgFKvwWH_L-270">
          <mxGeometry relative="1" as="geometry" />
        </mxCell>
        <mxCell id="kHghbOgyVwqgFKvwWH_L-267" value="&lt;p style=&quot;white-space-collapse: preserve;&quot; dir=&quot;auto&quot;&gt;&lt;font style=&quot;font-size: 10px;&quot;&gt;Input nama/id pegawai&lt;/font&gt;&lt;/p&gt;" style="rounded=1;whiteSpace=wrap;html=1;" vertex="1" parent="1">
          <mxGeometry x="2421" y="926" width="80" height="30" as="geometry" />
        </mxCell>
        <mxCell id="kHghbOgyVwqgFKvwWH_L-269" value="&lt;p style=&quot;white-space-collapse: preserve;&quot; dir=&quot;auto&quot;&gt;&lt;span style=&quot;font-size: 10px;&quot;&gt;Menampilkan data pegawai&lt;/span&gt;&lt;/p&gt;" style="rounded=1;whiteSpace=wrap;html=1;" vertex="1" parent="1">
          <mxGeometry x="2586.5" y="1026" width="80" height="30" as="geometry" />
        </mxCell>
        <mxCell id="kHghbOgyVwqgFKvwWH_L-270" value="&lt;p style=&quot;white-space-collapse: preserve;&quot; dir=&quot;auto&quot;&gt;&lt;span style=&quot;font-size: 10px;&quot;&gt;Validasi Inputan&lt;br/&gt;(Sesuai/Tidak)&lt;/span&gt;&lt;/p&gt;" style="rounded=1;whiteSpace=wrap;html=1;" vertex="1" parent="1">
          <mxGeometry x="2627" y="926" width="80" height="30" as="geometry" />
        </mxCell>
        <mxCell id="kHghbOgyVwqgFKvwWH_L-271" style="edgeStyle=none;curved=1;rounded=0;orthogonalLoop=1;jettySize=auto;html=1;exitX=0.5;exitY=1;exitDx=0;exitDy=0;entryX=0.5;entryY=0;entryDx=0;entryDy=0;fontSize=12;startSize=8;endSize=8;endArrow=open;endFill=0;strokeColor=light-dark(#404040, #ededed);" edge="1" parent="1">
          <mxGeometry relative="1" as="geometry">
            <mxPoint x="2666.5" y="956" as="sourcePoint" />
            <mxPoint x="2666.5" y="986" as="targetPoint" />
          </mxGeometry>
        </mxCell>
        <mxCell id="kHghbOgyVwqgFKvwWH_L-272" value="" style="rhombus;whiteSpace=wrap;html=1;" vertex="1" parent="1">
          <mxGeometry x="2657" y="986" width="20" height="20" as="geometry" />
        </mxCell>
        <mxCell id="kHghbOgyVwqgFKvwWH_L-273" value="&lt;p style=&quot;white-space-collapse: preserve;&quot; dir=&quot;auto&quot;&gt;&lt;font style=&quot;font-size: 10px;&quot;&gt;Menampilkan pesan error&lt;/font&gt;&lt;/p&gt;" style="rounded=1;whiteSpace=wrap;html=1;" vertex="1" parent="1">
          <mxGeometry x="2677" y="1026" width="80" height="30" as="geometry" />
        </mxCell>
        <mxCell id="kHghbOgyVwqgFKvwWH_L-274" value="" style="endArrow=none;html=1;rounded=0;fontSize=12;startSize=8;endSize=8;curved=1;entryX=0;entryY=0.5;entryDx=0;entryDy=0;" edge="1" parent="1">
          <mxGeometry width="50" height="50" relative="1" as="geometry">
            <mxPoint x="2677" y="996" as="sourcePoint" />
            <mxPoint x="2717.5" y="996" as="targetPoint" />
          </mxGeometry>
        </mxCell>
        <mxCell id="kHghbOgyVwqgFKvwWH_L-275" value="" style="endArrow=none;html=1;rounded=0;fontSize=12;startSize=8;endSize=8;curved=1;entryX=0;entryY=0.5;entryDx=0;entryDy=0;" edge="1" parent="1">
          <mxGeometry width="50" height="50" relative="1" as="geometry">
            <mxPoint x="2626.5" y="996" as="sourcePoint" />
            <mxPoint x="2657" y="996" as="targetPoint" />
          </mxGeometry>
        </mxCell>
        <mxCell id="kHghbOgyVwqgFKvwWH_L-276" style="edgeStyle=none;curved=1;rounded=0;orthogonalLoop=1;jettySize=auto;html=1;exitX=0.5;exitY=1;exitDx=0;exitDy=0;entryX=0.5;entryY=0;entryDx=0;entryDy=0;fontSize=12;startSize=8;endSize=8;endArrow=open;endFill=0;strokeColor=light-dark(#404040, #ededed);" edge="1" parent="1">
          <mxGeometry relative="1" as="geometry">
            <mxPoint x="2626.88" y="996" as="sourcePoint" />
            <mxPoint x="2626.88" y="1026" as="targetPoint" />
          </mxGeometry>
        </mxCell>
        <mxCell id="kHghbOgyVwqgFKvwWH_L-277" value="yes" style="edgeLabel;html=1;align=center;verticalAlign=middle;resizable=0;points=[];fontSize=12;" vertex="1" connectable="0" parent="kHghbOgyVwqgFKvwWH_L-276">
          <mxGeometry x="-0.4175" relative="1" as="geometry">
            <mxPoint as="offset" />
          </mxGeometry>
        </mxCell>
        <mxCell id="kHghbOgyVwqgFKvwWH_L-278" style="edgeStyle=none;curved=1;rounded=0;orthogonalLoop=1;jettySize=auto;html=1;exitX=0.5;exitY=1;exitDx=0;exitDy=0;entryX=0.5;entryY=0;entryDx=0;entryDy=0;fontSize=12;startSize=8;endSize=8;endArrow=open;endFill=0;strokeColor=light-dark(#404040, #ededed);" edge="1" parent="1">
          <mxGeometry relative="1" as="geometry">
            <mxPoint x="2716.92" y="996" as="sourcePoint" />
            <mxPoint x="2716.92" y="1026" as="targetPoint" />
          </mxGeometry>
        </mxCell>
        <mxCell id="kHghbOgyVwqgFKvwWH_L-279" value="no" style="edgeLabel;html=1;align=center;verticalAlign=middle;resizable=0;points=[];fontSize=12;" vertex="1" connectable="0" parent="kHghbOgyVwqgFKvwWH_L-278">
          <mxGeometry x="-0.2762" y="-1" relative="1" as="geometry">
            <mxPoint as="offset" />
          </mxGeometry>
        </mxCell>
        <mxCell id="kHghbOgyVwqgFKvwWH_L-303" value="" style="verticalLabelPosition=bottom;verticalAlign=top;html=1;shape=mxgraph.basic.rect;fillColor2=none;strokeWidth=1;size=20;indent=5;movable=1;resizable=1;rotatable=1;deletable=1;editable=1;locked=0;connectable=1;" vertex="1" parent="1">
          <mxGeometry x="2390" y="1166" width="140" height="264" as="geometry" />
        </mxCell>
        <mxCell id="kHghbOgyVwqgFKvwWH_L-304" value="" style="verticalLabelPosition=bottom;verticalAlign=top;html=1;shape=mxgraph.basic.rect;fillColor2=none;strokeWidth=1;size=20;indent=5;movable=0;resizable=0;rotatable=0;deletable=0;editable=0;locked=1;connectable=0;" vertex="1" parent="1">
          <mxGeometry x="2530" y="1166" width="290" height="264" as="geometry" />
        </mxCell>
        <mxCell id="kHghbOgyVwqgFKvwWH_L-305" value="&lt;font style=&quot;font-size: 12px;&quot;&gt;Admin&lt;/font&gt;" style="text;strokeColor=none;fillColor=none;html=1;fontSize=24;fontStyle=1;verticalAlign=middle;align=center;" vertex="1" parent="1">
          <mxGeometry x="2410" y="1160" width="100" height="40" as="geometry" />
        </mxCell>
        <mxCell id="kHghbOgyVwqgFKvwWH_L-306" value="&lt;font style=&quot;font-size: 12px;&quot;&gt;Sistem&lt;/font&gt;" style="text;strokeColor=none;fillColor=none;html=1;fontSize=24;fontStyle=1;verticalAlign=middle;align=center;" vertex="1" parent="1">
          <mxGeometry x="2620.25" y="1170" width="100" height="30" as="geometry" />
        </mxCell>
        <mxCell id="kHghbOgyVwqgFKvwWH_L-307" value="&lt;p style=&quot;white-space-collapse: preserve;&quot; dir=&quot;auto&quot;&gt;&lt;font style=&quot;font-size: 10px;&quot;&gt;Update data pegawai&lt;/font&gt;&lt;/p&gt;" style="rounded=1;whiteSpace=wrap;html=1;" vertex="1" parent="1">
          <mxGeometry x="2420" y="1264" width="80" height="30" as="geometry" />
        </mxCell>
        <mxCell id="kHghbOgyVwqgFKvwWH_L-308" style="edgeStyle=none;curved=1;rounded=0;orthogonalLoop=1;jettySize=auto;html=1;exitX=1;exitY=0.5;exitDx=0;exitDy=0;fontSize=12;startSize=8;endSize=8;" edge="1" parent="1">
          <mxGeometry relative="1" as="geometry">
            <mxPoint x="2500" y="1278.75" as="sourcePoint" />
            <mxPoint x="2630.5" y="1278.75" as="targetPoint" />
          </mxGeometry>
        </mxCell>
        <mxCell id="kHghbOgyVwqgFKvwWH_L-309" value="" style="ellipse;whiteSpace=wrap;html=1;aspect=fixed;gradientColor=none;fillColor=#000000;fillStyle=solid;gradientDirection=north;" vertex="1" parent="1">
          <mxGeometry x="2450" y="1214" width="20" height="20" as="geometry" />
        </mxCell>
        <mxCell id="kHghbOgyVwqgFKvwWH_L-310" style="edgeStyle=none;curved=1;rounded=0;orthogonalLoop=1;jettySize=auto;html=1;exitX=0.5;exitY=1;exitDx=0;exitDy=0;entryX=0.5;entryY=0;entryDx=0;entryDy=0;fontSize=12;startSize=8;endSize=8;endArrow=open;endFill=0;strokeColor=light-dark(#404040, #ededed);" edge="1" parent="1">
          <mxGeometry relative="1" as="geometry">
            <mxPoint x="2459.83" y="1234" as="sourcePoint" />
            <mxPoint x="2459.83" y="1264" as="targetPoint" />
          </mxGeometry>
        </mxCell>
        <mxCell id="kHghbOgyVwqgFKvwWH_L-311" value="&lt;p style=&quot;white-space-collapse: preserve;&quot; dir=&quot;auto&quot;&gt;&lt;span style=&quot;font-size: 10px;&quot;&gt;Simpan User&lt;/span&gt;&lt;/p&gt;" style="rounded=1;whiteSpace=wrap;html=1;" vertex="1" parent="1">
          <mxGeometry x="2595" y="1364" width="80" height="30" as="geometry" />
        </mxCell>
        <mxCell id="kHghbOgyVwqgFKvwWH_L-312" value="&lt;p style=&quot;white-space-collapse: preserve;&quot; dir=&quot;auto&quot;&gt;&lt;span style=&quot;font-size: 10px;&quot;&gt;Validasi Perubahan&lt;br&gt;(Sesuai/Tidak)&lt;/span&gt;&lt;/p&gt;" style="rounded=1;whiteSpace=wrap;html=1;" vertex="1" parent="1">
          <mxGeometry x="2630.5" y="1250" width="99.5" height="44" as="geometry" />
        </mxCell>
        <mxCell id="kHghbOgyVwqgFKvwWH_L-313" style="edgeStyle=none;curved=1;rounded=0;orthogonalLoop=1;jettySize=auto;html=1;exitX=0.5;exitY=1;exitDx=0;exitDy=0;entryX=0.5;entryY=0;entryDx=0;entryDy=0;fontSize=12;startSize=8;endSize=8;endArrow=open;endFill=0;strokeColor=light-dark(#404040, #ededed);" edge="1" parent="1">
          <mxGeometry relative="1" as="geometry">
            <mxPoint x="2675" y="1294" as="sourcePoint" />
            <mxPoint x="2675" y="1324" as="targetPoint" />
          </mxGeometry>
        </mxCell>
        <mxCell id="kHghbOgyVwqgFKvwWH_L-314" value="" style="rhombus;whiteSpace=wrap;html=1;" vertex="1" parent="1">
          <mxGeometry x="2665.5" y="1324" width="20" height="20" as="geometry" />
        </mxCell>
        <mxCell id="kHghbOgyVwqgFKvwWH_L-315" value="&lt;p style=&quot;white-space-collapse: preserve;&quot; dir=&quot;auto&quot;&gt;&lt;font style=&quot;font-size: 10px;&quot;&gt;Menampilkan pesan error&lt;/font&gt;&lt;/p&gt;" style="rounded=1;whiteSpace=wrap;html=1;" vertex="1" parent="1">
          <mxGeometry x="2685.5" y="1364" width="80" height="30" as="geometry" />
        </mxCell>
        <mxCell id="kHghbOgyVwqgFKvwWH_L-316" value="" style="endArrow=none;html=1;rounded=0;fontSize=12;startSize=8;endSize=8;curved=1;entryX=0;entryY=0.5;entryDx=0;entryDy=0;" edge="1" parent="1">
          <mxGeometry width="50" height="50" relative="1" as="geometry">
            <mxPoint x="2685.5" y="1334" as="sourcePoint" />
            <mxPoint x="2726" y="1334" as="targetPoint" />
          </mxGeometry>
        </mxCell>
        <mxCell id="kHghbOgyVwqgFKvwWH_L-317" value="" style="endArrow=none;html=1;rounded=0;fontSize=12;startSize=8;endSize=8;curved=1;entryX=0;entryY=0.5;entryDx=0;entryDy=0;" edge="1" parent="1">
          <mxGeometry width="50" height="50" relative="1" as="geometry">
            <mxPoint x="2635" y="1334" as="sourcePoint" />
            <mxPoint x="2665.5" y="1334" as="targetPoint" />
          </mxGeometry>
        </mxCell>
        <mxCell id="kHghbOgyVwqgFKvwWH_L-318" style="edgeStyle=none;curved=1;rounded=0;orthogonalLoop=1;jettySize=auto;html=1;exitX=0.5;exitY=1;exitDx=0;exitDy=0;entryX=0.5;entryY=0;entryDx=0;entryDy=0;fontSize=12;startSize=8;endSize=8;endArrow=open;endFill=0;strokeColor=light-dark(#404040, #ededed);" edge="1" parent="1">
          <mxGeometry relative="1" as="geometry">
            <mxPoint x="2635.38" y="1334" as="sourcePoint" />
            <mxPoint x="2635.38" y="1364" as="targetPoint" />
          </mxGeometry>
        </mxCell>
        <mxCell id="kHghbOgyVwqgFKvwWH_L-319" value="yes" style="edgeLabel;html=1;align=center;verticalAlign=middle;resizable=0;points=[];fontSize=12;" vertex="1" connectable="0" parent="kHghbOgyVwqgFKvwWH_L-318">
          <mxGeometry x="-0.4175" relative="1" as="geometry">
            <mxPoint as="offset" />
          </mxGeometry>
        </mxCell>
        <mxCell id="kHghbOgyVwqgFKvwWH_L-320" style="edgeStyle=none;curved=1;rounded=0;orthogonalLoop=1;jettySize=auto;html=1;exitX=0.5;exitY=1;exitDx=0;exitDy=0;entryX=0.5;entryY=0;entryDx=0;entryDy=0;fontSize=12;startSize=8;endSize=8;endArrow=open;endFill=0;strokeColor=light-dark(#404040, #ededed);" edge="1" parent="1">
          <mxGeometry relative="1" as="geometry">
            <mxPoint x="2725.42" y="1334" as="sourcePoint" />
            <mxPoint x="2725.42" y="1364" as="targetPoint" />
          </mxGeometry>
        </mxCell>
        <mxCell id="kHghbOgyVwqgFKvwWH_L-321" value="no" style="edgeLabel;html=1;align=center;verticalAlign=middle;resizable=0;points=[];fontSize=12;" vertex="1" connectable="0" parent="kHghbOgyVwqgFKvwWH_L-320">
          <mxGeometry x="-0.2762" y="-1" relative="1" as="geometry">
            <mxPoint as="offset" />
          </mxGeometry>
        </mxCell>
        <mxCell id="kHghbOgyVwqgFKvwWH_L-324" value="" style="verticalLabelPosition=bottom;verticalAlign=top;html=1;shape=mxgraph.basic.rect;fillColor2=none;strokeWidth=1;size=20;indent=5;movable=1;resizable=1;rotatable=1;deletable=1;editable=1;locked=0;connectable=1;" vertex="1" parent="1">
          <mxGeometry x="1900" y="1323" width="140" height="156" as="geometry" />
        </mxCell>
        <mxCell id="kHghbOgyVwqgFKvwWH_L-325" value="" style="verticalLabelPosition=bottom;verticalAlign=top;html=1;shape=mxgraph.basic.rect;fillColor2=none;strokeWidth=1;size=20;indent=5;movable=1;resizable=1;rotatable=1;deletable=1;editable=1;locked=0;connectable=1;" vertex="1" parent="1">
          <mxGeometry x="2040" y="1323" width="290" height="156" as="geometry" />
        </mxCell>
        <mxCell id="kHghbOgyVwqgFKvwWH_L-326" value="&lt;font style=&quot;font-size: 12px;&quot;&gt;Admin&lt;/font&gt;" style="text;strokeColor=none;fillColor=none;html=1;fontSize=24;fontStyle=1;verticalAlign=middle;align=center;" vertex="1" parent="1">
          <mxGeometry x="1920" y="1317" width="100" height="40" as="geometry" />
        </mxCell>
        <mxCell id="kHghbOgyVwqgFKvwWH_L-327" value="&lt;font style=&quot;font-size: 12px;&quot;&gt;Sistem&lt;/font&gt;" style="text;strokeColor=none;fillColor=none;html=1;fontSize=24;fontStyle=1;verticalAlign=middle;align=center;" vertex="1" parent="1">
          <mxGeometry x="2130.25" y="1327" width="100" height="30" as="geometry" />
        </mxCell>
        <mxCell id="kHghbOgyVwqgFKvwWH_L-328" value="&lt;p style=&quot;white-space-collapse: preserve;&quot; dir=&quot;auto&quot;&gt;&lt;font style=&quot;font-size: 10px;&quot;&gt;Hapus data&lt;/font&gt;&lt;/p&gt;" style="rounded=1;whiteSpace=wrap;html=1;" vertex="1" parent="1">
          <mxGeometry x="1930" y="1421" width="80" height="30" as="geometry" />
        </mxCell>
        <mxCell id="kHghbOgyVwqgFKvwWH_L-329" style="edgeStyle=none;curved=1;rounded=0;orthogonalLoop=1;jettySize=auto;html=1;exitX=1;exitY=0.5;exitDx=0;exitDy=0;fontSize=12;startSize=8;endSize=8;" edge="1" parent="1">
          <mxGeometry relative="1" as="geometry">
            <mxPoint x="2010" y="1435.75" as="sourcePoint" />
            <mxPoint x="2140.5" y="1435.75" as="targetPoint" />
          </mxGeometry>
        </mxCell>
        <mxCell id="kHghbOgyVwqgFKvwWH_L-330" value="" style="ellipse;whiteSpace=wrap;html=1;aspect=fixed;gradientColor=none;fillColor=#000000;fillStyle=solid;gradientDirection=north;" vertex="1" parent="1">
          <mxGeometry x="1960" y="1371" width="20" height="20" as="geometry" />
        </mxCell>
        <mxCell id="kHghbOgyVwqgFKvwWH_L-331" style="edgeStyle=none;curved=1;rounded=0;orthogonalLoop=1;jettySize=auto;html=1;exitX=0.5;exitY=1;exitDx=0;exitDy=0;entryX=0.5;entryY=0;entryDx=0;entryDy=0;fontSize=12;startSize=8;endSize=8;endArrow=open;endFill=0;strokeColor=light-dark(#404040, #ededed);" edge="1" parent="1">
          <mxGeometry relative="1" as="geometry">
            <mxPoint x="1969.83" y="1391" as="sourcePoint" />
            <mxPoint x="1969.83" y="1421" as="targetPoint" />
          </mxGeometry>
        </mxCell>
        <mxCell id="kHghbOgyVwqgFKvwWH_L-332" value="&lt;p style=&quot;white-space-collapse: preserve;&quot; dir=&quot;auto&quot;&gt;&lt;span style=&quot;font-size: 10px;&quot;&gt;Menghapus data pegawai&lt;/span&gt;&lt;/p&gt;" style="rounded=1;whiteSpace=wrap;html=1;" vertex="1" parent="1">
          <mxGeometry x="2140.5" y="1421" width="80" height="30" as="geometry" />
        </mxCell>
      </root>
    </mxGraphModel>
  </diagram>
</mxfile>
